<?xml version="1.0" encoding="utf-8" standalone="no"?>
<!DOCTYPE svg PUBLIC "-//W3C//DTD SVG 1.1//EN"
  "http://www.w3.org/Graphics/SVG/1.1/DTD/svg11.dtd">
<svg xmlns:xlink="http://www.w3.org/1999/xlink" width="432pt" height="360pt" viewBox="0 0 432 360" xmlns="http://www.w3.org/2000/svg" version="1.1">
 <metadata>
  <rdf:RDF xmlns:dc="http://purl.org/dc/elements/1.1/" xmlns:cc="http://creativecommons.org/ns#" xmlns:rdf="http://www.w3.org/1999/02/22-rdf-syntax-ns#">
   <cc:Work>
    <dc:type rdf:resource="http://purl.org/dc/dcmitype/StillImage"/>
    <dc:date>2024-01-12T14:56:33.889234</dc:date>
    <dc:format>image/svg+xml</dc:format>
    <dc:creator>
     <cc:Agent>
      <dc:title>Matplotlib v3.5.3, https://matplotlib.org/</dc:title>
     </cc:Agent>
    </dc:creator>
   </cc:Work>
  </rdf:RDF>
 </metadata>
 <defs>
  <style type="text/css">*{stroke-linejoin: round; stroke-linecap: butt}</style>
 </defs>
 <g id="figure_1">
  <g id="patch_1">
   <path d="M 0 360 
L 432 360 
L 432 0 
L 0 0 
L 0 360 
z
" style="fill: none"/>
  </g>
  <g id="axes_1">
   <g id="patch_2">
    <path d="M 54 315 
L 388.8 315 
L 388.8 43.2 
L 54 43.2 
z
" style="fill: #ffffff"/>
   </g>
   <g id="matplotlib.axis_1">
    <g id="xtick_1">
     <g id="line2d_1">
      <defs>
       <path id="m518379ccbe" d="M 0 0 
L 0 3.5 
" style="stroke: #000000; stroke-width: 0.8"/>
      </defs>
      <g>
       <use xlink:href="#m518379ccbe" x="54" y="315" style="stroke: #000000; stroke-width: 0.8"/>
      </g>
     </g>
     <g id="text_1">
      <!-- 0.0 -->
      <g transform="translate(46.048437 329.598437)scale(0.1 -0.1)">
       <defs>
        <path id="DejaVuSans-30" d="M 2034 4250 
Q 1547 4250 1301 3770 
Q 1056 3291 1056 2328 
Q 1056 1369 1301 889 
Q 1547 409 2034 409 
Q 2525 409 2770 889 
Q 3016 1369 3016 2328 
Q 3016 3291 2770 3770 
Q 2525 4250 2034 4250 
z
M 2034 4750 
Q 2819 4750 3233 4129 
Q 3647 3509 3647 2328 
Q 3647 1150 3233 529 
Q 2819 -91 2034 -91 
Q 1250 -91 836 529 
Q 422 1150 422 2328 
Q 422 3509 836 4129 
Q 1250 4750 2034 4750 
z
" transform="scale(0.015625)"/>
        <path id="DejaVuSans-2e" d="M 684 794 
L 1344 794 
L 1344 0 
L 684 0 
L 684 794 
z
" transform="scale(0.015625)"/>
       </defs>
       <use xlink:href="#DejaVuSans-30"/>
       <use xlink:href="#DejaVuSans-2e" x="63.623047"/>
       <use xlink:href="#DejaVuSans-30" x="95.410156"/>
      </g>
     </g>
    </g>
    <g id="xtick_2">
     <g id="line2d_2">
      <g>
       <use xlink:href="#m518379ccbe" x="120.96" y="315" style="stroke: #000000; stroke-width: 0.8"/>
      </g>
     </g>
     <g id="text_2">
      <!-- 0.2 -->
      <g transform="translate(113.008438 329.598437)scale(0.1 -0.1)">
       <defs>
        <path id="DejaVuSans-32" d="M 1228 531 
L 3431 531 
L 3431 0 
L 469 0 
L 469 531 
Q 828 903 1448 1529 
Q 2069 2156 2228 2338 
Q 2531 2678 2651 2914 
Q 2772 3150 2772 3378 
Q 2772 3750 2511 3984 
Q 2250 4219 1831 4219 
Q 1534 4219 1204 4116 
Q 875 4013 500 3803 
L 500 4441 
Q 881 4594 1212 4672 
Q 1544 4750 1819 4750 
Q 2544 4750 2975 4387 
Q 3406 4025 3406 3419 
Q 3406 3131 3298 2873 
Q 3191 2616 2906 2266 
Q 2828 2175 2409 1742 
Q 1991 1309 1228 531 
z
" transform="scale(0.015625)"/>
       </defs>
       <use xlink:href="#DejaVuSans-30"/>
       <use xlink:href="#DejaVuSans-2e" x="63.623047"/>
       <use xlink:href="#DejaVuSans-32" x="95.410156"/>
      </g>
     </g>
    </g>
    <g id="xtick_3">
     <g id="line2d_3">
      <g>
       <use xlink:href="#m518379ccbe" x="187.92" y="315" style="stroke: #000000; stroke-width: 0.8"/>
      </g>
     </g>
     <g id="text_3">
      <!-- 0.4 -->
      <g transform="translate(179.968438 329.598437)scale(0.1 -0.1)">
       <defs>
        <path id="DejaVuSans-34" d="M 2419 4116 
L 825 1625 
L 2419 1625 
L 2419 4116 
z
M 2253 4666 
L 3047 4666 
L 3047 1625 
L 3713 1625 
L 3713 1100 
L 3047 1100 
L 3047 0 
L 2419 0 
L 2419 1100 
L 313 1100 
L 313 1709 
L 2253 4666 
z
" transform="scale(0.015625)"/>
       </defs>
       <use xlink:href="#DejaVuSans-30"/>
       <use xlink:href="#DejaVuSans-2e" x="63.623047"/>
       <use xlink:href="#DejaVuSans-34" x="95.410156"/>
      </g>
     </g>
    </g>
    <g id="xtick_4">
     <g id="line2d_4">
      <g>
       <use xlink:href="#m518379ccbe" x="254.88" y="315" style="stroke: #000000; stroke-width: 0.8"/>
      </g>
     </g>
     <g id="text_4">
      <!-- 0.6 -->
      <g transform="translate(246.928438 329.598437)scale(0.1 -0.1)">
       <defs>
        <path id="DejaVuSans-36" d="M 2113 2584 
Q 1688 2584 1439 2293 
Q 1191 2003 1191 1497 
Q 1191 994 1439 701 
Q 1688 409 2113 409 
Q 2538 409 2786 701 
Q 3034 994 3034 1497 
Q 3034 2003 2786 2293 
Q 2538 2584 2113 2584 
z
M 3366 4563 
L 3366 3988 
Q 3128 4100 2886 4159 
Q 2644 4219 2406 4219 
Q 1781 4219 1451 3797 
Q 1122 3375 1075 2522 
Q 1259 2794 1537 2939 
Q 1816 3084 2150 3084 
Q 2853 3084 3261 2657 
Q 3669 2231 3669 1497 
Q 3669 778 3244 343 
Q 2819 -91 2113 -91 
Q 1303 -91 875 529 
Q 447 1150 447 2328 
Q 447 3434 972 4092 
Q 1497 4750 2381 4750 
Q 2619 4750 2861 4703 
Q 3103 4656 3366 4563 
z
" transform="scale(0.015625)"/>
       </defs>
       <use xlink:href="#DejaVuSans-30"/>
       <use xlink:href="#DejaVuSans-2e" x="63.623047"/>
       <use xlink:href="#DejaVuSans-36" x="95.410156"/>
      </g>
     </g>
    </g>
    <g id="xtick_5">
     <g id="line2d_5">
      <g>
       <use xlink:href="#m518379ccbe" x="321.84" y="315" style="stroke: #000000; stroke-width: 0.8"/>
      </g>
     </g>
     <g id="text_5">
      <!-- 0.8 -->
      <g transform="translate(313.888438 329.598437)scale(0.1 -0.1)">
       <defs>
        <path id="DejaVuSans-38" d="M 2034 2216 
Q 1584 2216 1326 1975 
Q 1069 1734 1069 1313 
Q 1069 891 1326 650 
Q 1584 409 2034 409 
Q 2484 409 2743 651 
Q 3003 894 3003 1313 
Q 3003 1734 2745 1975 
Q 2488 2216 2034 2216 
z
M 1403 2484 
Q 997 2584 770 2862 
Q 544 3141 544 3541 
Q 544 4100 942 4425 
Q 1341 4750 2034 4750 
Q 2731 4750 3128 4425 
Q 3525 4100 3525 3541 
Q 3525 3141 3298 2862 
Q 3072 2584 2669 2484 
Q 3125 2378 3379 2068 
Q 3634 1759 3634 1313 
Q 3634 634 3220 271 
Q 2806 -91 2034 -91 
Q 1263 -91 848 271 
Q 434 634 434 1313 
Q 434 1759 690 2068 
Q 947 2378 1403 2484 
z
M 1172 3481 
Q 1172 3119 1398 2916 
Q 1625 2713 2034 2713 
Q 2441 2713 2670 2916 
Q 2900 3119 2900 3481 
Q 2900 3844 2670 4047 
Q 2441 4250 2034 4250 
Q 1625 4250 1398 4047 
Q 1172 3844 1172 3481 
z
" transform="scale(0.015625)"/>
       </defs>
       <use xlink:href="#DejaVuSans-30"/>
       <use xlink:href="#DejaVuSans-2e" x="63.623047"/>
       <use xlink:href="#DejaVuSans-38" x="95.410156"/>
      </g>
     </g>
    </g>
    <g id="xtick_6">
     <g id="line2d_6">
      <g>
       <use xlink:href="#m518379ccbe" x="388.8" y="315" style="stroke: #000000; stroke-width: 0.8"/>
      </g>
     </g>
     <g id="text_6">
      <!-- 1.0 -->
      <g transform="translate(380.848437 329.598437)scale(0.1 -0.1)">
       <defs>
        <path id="DejaVuSans-31" d="M 794 531 
L 1825 531 
L 1825 4091 
L 703 3866 
L 703 4441 
L 1819 4666 
L 2450 4666 
L 2450 531 
L 3481 531 
L 3481 0 
L 794 0 
L 794 531 
z
" transform="scale(0.015625)"/>
       </defs>
       <use xlink:href="#DejaVuSans-31"/>
       <use xlink:href="#DejaVuSans-2e" x="63.623047"/>
       <use xlink:href="#DejaVuSans-30" x="95.410156"/>
      </g>
     </g>
    </g>
    <g id="text_7">
     <!-- 1 - Specificity (False Positive Rate) -->
     <g transform="translate(120.622578 345.141719)scale(0.13 -0.13)">
      <defs>
       <path id="ArialMT-31" d="M 2384 0 
L 1822 0 
L 1822 3584 
Q 1619 3391 1289 3197 
Q 959 3003 697 2906 
L 697 3450 
Q 1169 3672 1522 3987 
Q 1875 4303 2022 4600 
L 2384 4600 
L 2384 0 
z
" transform="scale(0.015625)"/>
       <path id="ArialMT-20" transform="scale(0.015625)"/>
       <path id="ArialMT-2d" d="M 203 1375 
L 203 1941 
L 1931 1941 
L 1931 1375 
L 203 1375 
z
" transform="scale(0.015625)"/>
       <path id="ArialMT-53" d="M 288 1472 
L 859 1522 
Q 900 1178 1048 958 
Q 1197 738 1509 602 
Q 1822 466 2213 466 
Q 2559 466 2825 569 
Q 3091 672 3220 851 
Q 3350 1031 3350 1244 
Q 3350 1459 3225 1620 
Q 3100 1781 2813 1891 
Q 2628 1963 1997 2114 
Q 1366 2266 1113 2400 
Q 784 2572 623 2826 
Q 463 3081 463 3397 
Q 463 3744 659 4045 
Q 856 4347 1234 4503 
Q 1613 4659 2075 4659 
Q 2584 4659 2973 4495 
Q 3363 4331 3572 4012 
Q 3781 3694 3797 3291 
L 3216 3247 
Q 3169 3681 2898 3903 
Q 2628 4125 2100 4125 
Q 1550 4125 1298 3923 
Q 1047 3722 1047 3438 
Q 1047 3191 1225 3031 
Q 1400 2872 2139 2705 
Q 2878 2538 3153 2413 
Q 3553 2228 3743 1945 
Q 3934 1663 3934 1294 
Q 3934 928 3725 604 
Q 3516 281 3123 101 
Q 2731 -78 2241 -78 
Q 1619 -78 1198 103 
Q 778 284 539 648 
Q 300 1013 288 1472 
z
" transform="scale(0.015625)"/>
       <path id="ArialMT-70" d="M 422 -1272 
L 422 3319 
L 934 3319 
L 934 2888 
Q 1116 3141 1344 3267 
Q 1572 3394 1897 3394 
Q 2322 3394 2647 3175 
Q 2972 2956 3137 2557 
Q 3303 2159 3303 1684 
Q 3303 1175 3120 767 
Q 2938 359 2589 142 
Q 2241 -75 1856 -75 
Q 1575 -75 1351 44 
Q 1128 163 984 344 
L 984 -1272 
L 422 -1272 
z
M 931 1641 
Q 931 1000 1190 694 
Q 1450 388 1819 388 
Q 2194 388 2461 705 
Q 2728 1022 2728 1688 
Q 2728 2322 2467 2637 
Q 2206 2953 1844 2953 
Q 1484 2953 1207 2617 
Q 931 2281 931 1641 
z
" transform="scale(0.015625)"/>
       <path id="ArialMT-65" d="M 2694 1069 
L 3275 997 
Q 3138 488 2766 206 
Q 2394 -75 1816 -75 
Q 1088 -75 661 373 
Q 234 822 234 1631 
Q 234 2469 665 2931 
Q 1097 3394 1784 3394 
Q 2450 3394 2872 2941 
Q 3294 2488 3294 1666 
Q 3294 1616 3291 1516 
L 816 1516 
Q 847 969 1125 678 
Q 1403 388 1819 388 
Q 2128 388 2347 550 
Q 2566 713 2694 1069 
z
M 847 1978 
L 2700 1978 
Q 2663 2397 2488 2606 
Q 2219 2931 1791 2931 
Q 1403 2931 1139 2672 
Q 875 2413 847 1978 
z
" transform="scale(0.015625)"/>
       <path id="ArialMT-63" d="M 2588 1216 
L 3141 1144 
Q 3050 572 2676 248 
Q 2303 -75 1759 -75 
Q 1078 -75 664 370 
Q 250 816 250 1647 
Q 250 2184 428 2587 
Q 606 2991 970 3192 
Q 1334 3394 1763 3394 
Q 2303 3394 2647 3120 
Q 2991 2847 3088 2344 
L 2541 2259 
Q 2463 2594 2264 2762 
Q 2066 2931 1784 2931 
Q 1359 2931 1093 2626 
Q 828 2322 828 1663 
Q 828 994 1084 691 
Q 1341 388 1753 388 
Q 2084 388 2306 591 
Q 2528 794 2588 1216 
z
" transform="scale(0.015625)"/>
       <path id="ArialMT-69" d="M 425 3934 
L 425 4581 
L 988 4581 
L 988 3934 
L 425 3934 
z
M 425 0 
L 425 3319 
L 988 3319 
L 988 0 
L 425 0 
z
" transform="scale(0.015625)"/>
       <path id="ArialMT-66" d="M 556 0 
L 556 2881 
L 59 2881 
L 59 3319 
L 556 3319 
L 556 3672 
Q 556 4006 616 4169 
Q 697 4388 901 4523 
Q 1106 4659 1475 4659 
Q 1713 4659 2000 4603 
L 1916 4113 
Q 1741 4144 1584 4144 
Q 1328 4144 1222 4034 
Q 1116 3925 1116 3625 
L 1116 3319 
L 1763 3319 
L 1763 2881 
L 1116 2881 
L 1116 0 
L 556 0 
z
" transform="scale(0.015625)"/>
       <path id="ArialMT-74" d="M 1650 503 
L 1731 6 
Q 1494 -44 1306 -44 
Q 1000 -44 831 53 
Q 663 150 594 308 
Q 525 466 525 972 
L 525 2881 
L 113 2881 
L 113 3319 
L 525 3319 
L 525 4141 
L 1084 4478 
L 1084 3319 
L 1650 3319 
L 1650 2881 
L 1084 2881 
L 1084 941 
Q 1084 700 1114 631 
Q 1144 563 1211 522 
Q 1278 481 1403 481 
Q 1497 481 1650 503 
z
" transform="scale(0.015625)"/>
       <path id="ArialMT-79" d="M 397 -1278 
L 334 -750 
Q 519 -800 656 -800 
Q 844 -800 956 -737 
Q 1069 -675 1141 -563 
Q 1194 -478 1313 -144 
Q 1328 -97 1363 -6 
L 103 3319 
L 709 3319 
L 1400 1397 
Q 1534 1031 1641 628 
Q 1738 1016 1872 1384 
L 2581 3319 
L 3144 3319 
L 1881 -56 
Q 1678 -603 1566 -809 
Q 1416 -1088 1222 -1217 
Q 1028 -1347 759 -1347 
Q 597 -1347 397 -1278 
z
" transform="scale(0.015625)"/>
       <path id="ArialMT-28" d="M 1497 -1347 
Q 1031 -759 709 28 
Q 388 816 388 1659 
Q 388 2403 628 3084 
Q 909 3875 1497 4659 
L 1900 4659 
Q 1522 4009 1400 3731 
Q 1209 3300 1100 2831 
Q 966 2247 966 1656 
Q 966 153 1900 -1347 
L 1497 -1347 
z
" transform="scale(0.015625)"/>
       <path id="ArialMT-46" d="M 525 0 
L 525 4581 
L 3616 4581 
L 3616 4041 
L 1131 4041 
L 1131 2622 
L 3281 2622 
L 3281 2081 
L 1131 2081 
L 1131 0 
L 525 0 
z
" transform="scale(0.015625)"/>
       <path id="ArialMT-61" d="M 2588 409 
Q 2275 144 1986 34 
Q 1697 -75 1366 -75 
Q 819 -75 525 192 
Q 231 459 231 875 
Q 231 1119 342 1320 
Q 453 1522 633 1644 
Q 813 1766 1038 1828 
Q 1203 1872 1538 1913 
Q 2219 1994 2541 2106 
Q 2544 2222 2544 2253 
Q 2544 2597 2384 2738 
Q 2169 2928 1744 2928 
Q 1347 2928 1158 2789 
Q 969 2650 878 2297 
L 328 2372 
Q 403 2725 575 2942 
Q 747 3159 1072 3276 
Q 1397 3394 1825 3394 
Q 2250 3394 2515 3294 
Q 2781 3194 2906 3042 
Q 3031 2891 3081 2659 
Q 3109 2516 3109 2141 
L 3109 1391 
Q 3109 606 3145 398 
Q 3181 191 3288 0 
L 2700 0 
Q 2613 175 2588 409 
z
M 2541 1666 
Q 2234 1541 1622 1453 
Q 1275 1403 1131 1340 
Q 988 1278 909 1158 
Q 831 1038 831 891 
Q 831 666 1001 516 
Q 1172 366 1500 366 
Q 1825 366 2078 508 
Q 2331 650 2450 897 
Q 2541 1088 2541 1459 
L 2541 1666 
z
" transform="scale(0.015625)"/>
       <path id="ArialMT-6c" d="M 409 0 
L 409 4581 
L 972 4581 
L 972 0 
L 409 0 
z
" transform="scale(0.015625)"/>
       <path id="ArialMT-73" d="M 197 991 
L 753 1078 
Q 800 744 1014 566 
Q 1228 388 1613 388 
Q 2000 388 2187 545 
Q 2375 703 2375 916 
Q 2375 1106 2209 1216 
Q 2094 1291 1634 1406 
Q 1016 1563 777 1677 
Q 538 1791 414 1992 
Q 291 2194 291 2438 
Q 291 2659 392 2848 
Q 494 3038 669 3163 
Q 800 3259 1026 3326 
Q 1253 3394 1513 3394 
Q 1903 3394 2198 3281 
Q 2494 3169 2634 2976 
Q 2775 2784 2828 2463 
L 2278 2388 
Q 2241 2644 2061 2787 
Q 1881 2931 1553 2931 
Q 1166 2931 1000 2803 
Q 834 2675 834 2503 
Q 834 2394 903 2306 
Q 972 2216 1119 2156 
Q 1203 2125 1616 2013 
Q 2213 1853 2448 1751 
Q 2684 1650 2818 1456 
Q 2953 1263 2953 975 
Q 2953 694 2789 445 
Q 2625 197 2315 61 
Q 2006 -75 1616 -75 
Q 969 -75 630 194 
Q 291 463 197 991 
z
" transform="scale(0.015625)"/>
       <path id="ArialMT-50" d="M 494 0 
L 494 4581 
L 2222 4581 
Q 2678 4581 2919 4538 
Q 3256 4481 3484 4323 
Q 3713 4166 3852 3881 
Q 3991 3597 3991 3256 
Q 3991 2672 3619 2267 
Q 3247 1863 2275 1863 
L 1100 1863 
L 1100 0 
L 494 0 
z
M 1100 2403 
L 2284 2403 
Q 2872 2403 3119 2622 
Q 3366 2841 3366 3238 
Q 3366 3525 3220 3729 
Q 3075 3934 2838 4000 
Q 2684 4041 2272 4041 
L 1100 4041 
L 1100 2403 
z
" transform="scale(0.015625)"/>
       <path id="ArialMT-6f" d="M 213 1659 
Q 213 2581 725 3025 
Q 1153 3394 1769 3394 
Q 2453 3394 2887 2945 
Q 3322 2497 3322 1706 
Q 3322 1066 3130 698 
Q 2938 331 2570 128 
Q 2203 -75 1769 -75 
Q 1072 -75 642 372 
Q 213 819 213 1659 
z
M 791 1659 
Q 791 1022 1069 705 
Q 1347 388 1769 388 
Q 2188 388 2466 706 
Q 2744 1025 2744 1678 
Q 2744 2294 2464 2611 
Q 2184 2928 1769 2928 
Q 1347 2928 1069 2612 
Q 791 2297 791 1659 
z
" transform="scale(0.015625)"/>
       <path id="ArialMT-76" d="M 1344 0 
L 81 3319 
L 675 3319 
L 1388 1331 
Q 1503 1009 1600 663 
Q 1675 925 1809 1294 
L 2547 3319 
L 3125 3319 
L 1869 0 
L 1344 0 
z
" transform="scale(0.015625)"/>
       <path id="ArialMT-52" d="M 503 0 
L 503 4581 
L 2534 4581 
Q 3147 4581 3465 4457 
Q 3784 4334 3975 4021 
Q 4166 3709 4166 3331 
Q 4166 2844 3850 2509 
Q 3534 2175 2875 2084 
Q 3116 1969 3241 1856 
Q 3506 1613 3744 1247 
L 4541 0 
L 3778 0 
L 3172 953 
Q 2906 1366 2734 1584 
Q 2563 1803 2427 1890 
Q 2291 1978 2150 2013 
Q 2047 2034 1813 2034 
L 1109 2034 
L 1109 0 
L 503 0 
z
M 1109 2559 
L 2413 2559 
Q 2828 2559 3062 2645 
Q 3297 2731 3419 2920 
Q 3541 3109 3541 3331 
Q 3541 3656 3305 3865 
Q 3069 4075 2559 4075 
L 1109 4075 
L 1109 2559 
z
" transform="scale(0.015625)"/>
       <path id="ArialMT-29" d="M 791 -1347 
L 388 -1347 
Q 1322 153 1322 1656 
Q 1322 2244 1188 2822 
Q 1081 3291 891 3722 
Q 769 4003 388 4659 
L 791 4659 
Q 1378 3875 1659 3084 
Q 1900 2403 1900 1659 
Q 1900 816 1576 28 
Q 1253 -759 791 -1347 
z
" transform="scale(0.015625)"/>
      </defs>
      <use xlink:href="#ArialMT-31"/>
      <use xlink:href="#ArialMT-20" x="55.615234"/>
      <use xlink:href="#ArialMT-2d" x="83.398438"/>
      <use xlink:href="#ArialMT-20" x="116.699219"/>
      <use xlink:href="#ArialMT-53" x="144.482422"/>
      <use xlink:href="#ArialMT-70" x="211.181641"/>
      <use xlink:href="#ArialMT-65" x="266.796875"/>
      <use xlink:href="#ArialMT-63" x="322.412109"/>
      <use xlink:href="#ArialMT-69" x="372.412109"/>
      <use xlink:href="#ArialMT-66" x="394.628906"/>
      <use xlink:href="#ArialMT-69" x="422.412109"/>
      <use xlink:href="#ArialMT-63" x="444.628906"/>
      <use xlink:href="#ArialMT-69" x="494.628906"/>
      <use xlink:href="#ArialMT-74" x="516.845703"/>
      <use xlink:href="#ArialMT-79" x="544.628906"/>
      <use xlink:href="#ArialMT-20" x="594.628906"/>
      <use xlink:href="#ArialMT-28" x="622.412109"/>
      <use xlink:href="#ArialMT-46" x="655.712891"/>
      <use xlink:href="#ArialMT-61" x="716.796875"/>
      <use xlink:href="#ArialMT-6c" x="772.412109"/>
      <use xlink:href="#ArialMT-73" x="794.628906"/>
      <use xlink:href="#ArialMT-65" x="844.628906"/>
      <use xlink:href="#ArialMT-20" x="900.244141"/>
      <use xlink:href="#ArialMT-50" x="928.027344"/>
      <use xlink:href="#ArialMT-6f" x="994.726562"/>
      <use xlink:href="#ArialMT-73" x="1050.341797"/>
      <use xlink:href="#ArialMT-69" x="1100.341797"/>
      <use xlink:href="#ArialMT-74" x="1122.558594"/>
      <use xlink:href="#ArialMT-69" x="1150.341797"/>
      <use xlink:href="#ArialMT-76" x="1172.558594"/>
      <use xlink:href="#ArialMT-65" x="1222.558594"/>
      <use xlink:href="#ArialMT-20" x="1278.173828"/>
      <use xlink:href="#ArialMT-52" x="1305.957031"/>
      <use xlink:href="#ArialMT-61" x="1378.173828"/>
      <use xlink:href="#ArialMT-74" x="1433.789062"/>
      <use xlink:href="#ArialMT-65" x="1461.572266"/>
      <use xlink:href="#ArialMT-29" x="1517.1875"/>
     </g>
    </g>
   </g>
   <g id="matplotlib.axis_2">
    <g id="ytick_1">
     <g id="line2d_7">
      <defs>
       <path id="m6ab4483926" d="M 0 0 
L -3.5 0 
" style="stroke: #000000; stroke-width: 0.8"/>
      </defs>
      <g>
       <use xlink:href="#m6ab4483926" x="54" y="315" style="stroke: #000000; stroke-width: 0.8"/>
      </g>
     </g>
     <g id="text_8">
      <!-- 0.0 -->
      <g transform="translate(31.096875 318.799219)scale(0.1 -0.1)">
       <use xlink:href="#DejaVuSans-30"/>
       <use xlink:href="#DejaVuSans-2e" x="63.623047"/>
       <use xlink:href="#DejaVuSans-30" x="95.410156"/>
      </g>
     </g>
    </g>
    <g id="ytick_2">
     <g id="line2d_8">
      <g>
       <use xlink:href="#m6ab4483926" x="54" y="263.228571" style="stroke: #000000; stroke-width: 0.8"/>
      </g>
     </g>
     <g id="text_9">
      <!-- 0.2 -->
      <g transform="translate(31.096875 267.02779)scale(0.1 -0.1)">
       <use xlink:href="#DejaVuSans-30"/>
       <use xlink:href="#DejaVuSans-2e" x="63.623047"/>
       <use xlink:href="#DejaVuSans-32" x="95.410156"/>
      </g>
     </g>
    </g>
    <g id="ytick_3">
     <g id="line2d_9">
      <g>
       <use xlink:href="#m6ab4483926" x="54" y="211.457143" style="stroke: #000000; stroke-width: 0.8"/>
      </g>
     </g>
     <g id="text_10">
      <!-- 0.4 -->
      <g transform="translate(31.096875 215.256362)scale(0.1 -0.1)">
       <use xlink:href="#DejaVuSans-30"/>
       <use xlink:href="#DejaVuSans-2e" x="63.623047"/>
       <use xlink:href="#DejaVuSans-34" x="95.410156"/>
      </g>
     </g>
    </g>
    <g id="ytick_4">
     <g id="line2d_10">
      <g>
       <use xlink:href="#m6ab4483926" x="54" y="159.685714" style="stroke: #000000; stroke-width: 0.8"/>
      </g>
     </g>
     <g id="text_11">
      <!-- 0.6 -->
      <g transform="translate(31.096875 163.484933)scale(0.1 -0.1)">
       <use xlink:href="#DejaVuSans-30"/>
       <use xlink:href="#DejaVuSans-2e" x="63.623047"/>
       <use xlink:href="#DejaVuSans-36" x="95.410156"/>
      </g>
     </g>
    </g>
    <g id="ytick_5">
     <g id="line2d_11">
      <g>
       <use xlink:href="#m6ab4483926" x="54" y="107.914286" style="stroke: #000000; stroke-width: 0.8"/>
      </g>
     </g>
     <g id="text_12">
      <!-- 0.8 -->
      <g transform="translate(31.096875 111.713504)scale(0.1 -0.1)">
       <use xlink:href="#DejaVuSans-30"/>
       <use xlink:href="#DejaVuSans-2e" x="63.623047"/>
       <use xlink:href="#DejaVuSans-38" x="95.410156"/>
      </g>
     </g>
    </g>
    <g id="ytick_6">
     <g id="line2d_12">
      <g>
       <use xlink:href="#m6ab4483926" x="54" y="56.142857" style="stroke: #000000; stroke-width: 0.8"/>
      </g>
     </g>
     <g id="text_13">
      <!-- 1.0 -->
      <g transform="translate(31.096875 59.942076)scale(0.1 -0.1)">
       <use xlink:href="#DejaVuSans-31"/>
       <use xlink:href="#DejaVuSans-2e" x="63.623047"/>
       <use xlink:href="#DejaVuSans-30" x="95.410156"/>
      </g>
     </g>
    </g>
    <g id="text_14">
     <!-- Sensitivity (True Positive Rate) -->
     <g transform="translate(24.360781 267.713281)rotate(-90)scale(0.13 -0.13)">
      <defs>
       <path id="ArialMT-6e" d="M 422 0 
L 422 3319 
L 928 3319 
L 928 2847 
Q 1294 3394 1984 3394 
Q 2284 3394 2536 3286 
Q 2788 3178 2913 3003 
Q 3038 2828 3088 2588 
Q 3119 2431 3119 2041 
L 3119 0 
L 2556 0 
L 2556 2019 
Q 2556 2363 2490 2533 
Q 2425 2703 2258 2804 
Q 2091 2906 1866 2906 
Q 1506 2906 1245 2678 
Q 984 2450 984 1813 
L 984 0 
L 422 0 
z
" transform="scale(0.015625)"/>
       <path id="ArialMT-54" d="M 1659 0 
L 1659 4041 
L 150 4041 
L 150 4581 
L 3781 4581 
L 3781 4041 
L 2266 4041 
L 2266 0 
L 1659 0 
z
" transform="scale(0.015625)"/>
       <path id="ArialMT-72" d="M 416 0 
L 416 3319 
L 922 3319 
L 922 2816 
Q 1116 3169 1280 3281 
Q 1444 3394 1641 3394 
Q 1925 3394 2219 3213 
L 2025 2691 
Q 1819 2813 1613 2813 
Q 1428 2813 1281 2702 
Q 1134 2591 1072 2394 
Q 978 2094 978 1738 
L 978 0 
L 416 0 
z
" transform="scale(0.015625)"/>
       <path id="ArialMT-75" d="M 2597 0 
L 2597 488 
Q 2209 -75 1544 -75 
Q 1250 -75 995 37 
Q 741 150 617 320 
Q 494 491 444 738 
Q 409 903 409 1263 
L 409 3319 
L 972 3319 
L 972 1478 
Q 972 1038 1006 884 
Q 1059 663 1231 536 
Q 1403 409 1656 409 
Q 1909 409 2131 539 
Q 2353 669 2445 892 
Q 2538 1116 2538 1541 
L 2538 3319 
L 3100 3319 
L 3100 0 
L 2597 0 
z
" transform="scale(0.015625)"/>
      </defs>
      <use xlink:href="#ArialMT-53"/>
      <use xlink:href="#ArialMT-65" x="66.699219"/>
      <use xlink:href="#ArialMT-6e" x="122.314453"/>
      <use xlink:href="#ArialMT-73" x="177.929688"/>
      <use xlink:href="#ArialMT-69" x="227.929688"/>
      <use xlink:href="#ArialMT-74" x="250.146484"/>
      <use xlink:href="#ArialMT-69" x="277.929688"/>
      <use xlink:href="#ArialMT-76" x="300.146484"/>
      <use xlink:href="#ArialMT-69" x="350.146484"/>
      <use xlink:href="#ArialMT-74" x="372.363281"/>
      <use xlink:href="#ArialMT-79" x="400.146484"/>
      <use xlink:href="#ArialMT-20" x="450.146484"/>
      <use xlink:href="#ArialMT-28" x="477.929688"/>
      <use xlink:href="#ArialMT-54" x="511.230469"/>
      <use xlink:href="#ArialMT-72" x="568.564453"/>
      <use xlink:href="#ArialMT-75" x="601.865234"/>
      <use xlink:href="#ArialMT-65" x="657.480469"/>
      <use xlink:href="#ArialMT-20" x="713.095703"/>
      <use xlink:href="#ArialMT-50" x="740.878906"/>
      <use xlink:href="#ArialMT-6f" x="807.578125"/>
      <use xlink:href="#ArialMT-73" x="863.193359"/>
      <use xlink:href="#ArialMT-69" x="913.193359"/>
      <use xlink:href="#ArialMT-74" x="935.410156"/>
      <use xlink:href="#ArialMT-69" x="963.193359"/>
      <use xlink:href="#ArialMT-76" x="985.410156"/>
      <use xlink:href="#ArialMT-65" x="1035.410156"/>
      <use xlink:href="#ArialMT-20" x="1091.025391"/>
      <use xlink:href="#ArialMT-52" x="1118.808594"/>
      <use xlink:href="#ArialMT-61" x="1191.025391"/>
      <use xlink:href="#ArialMT-74" x="1246.640625"/>
      <use xlink:href="#ArialMT-65" x="1274.423828"/>
      <use xlink:href="#ArialMT-29" x="1330.039062"/>
     </g>
    </g>
   </g>
   <g id="line2d_13">
    <path d="M 54 315 
L 54 302.607903 
L 54.87874 302.607903 
L 54.87874 297.788754 
L 55.75748 297.788754 
L 55.75748 295.723404 
L 56.63622 295.723404 
L 56.63622 295.034954 
L 57.514961 295.034954 
L 57.514961 287.462006 
L 58.393701 287.462006 
L 58.393701 285.396657 
L 59.272441 285.396657 
L 59.272441 284.708207 
L 60.151181 284.708207 
L 60.151181 282.642857 
L 61.029921 282.642857 
L 61.029921 279.889058 
L 61.908661 279.889058 
L 61.908661 279.200608 
L 62.787402 279.200608 
L 62.787402 277.823708 
L 63.666142 277.823708 
L 63.666142 273.693009 
L 64.544882 273.693009 
L 64.544882 270.93921 
L 65.423622 270.93921 
L 65.423622 264.054711 
L 66.302362 264.054711 
L 66.302362 259.235562 
L 67.181102 259.235562 
L 67.181102 253.727964 
L 68.059843 253.727964 
L 68.059843 239.958967 
L 68.938583 239.958967 
L 68.938583 239.270517 
L 69.817323 239.270517 
L 69.817323 237.893617 
L 70.696063 237.893617 
L 70.696063 233.762918 
L 71.574803 233.762918 
L 71.574803 233.074468 
L 72.453543 233.074468 
L 72.453543 232.386018 
L 73.332283 232.386018 
L 73.332283 227.566869 
L 75.089764 227.566869 
L 75.089764 226.18997 
L 75.968504 226.18997 
L 75.968504 224.81307 
L 76.847244 224.81307 
L 76.847244 222.74772 
L 77.725984 222.74772 
L 77.725984 216.551672 
L 78.604724 216.551672 
L 78.604724 214.486322 
L 79.483465 214.486322 
L 79.483465 210.355623 
L 81.240945 210.355623 
L 81.240945 209.667173 
L 82.119685 209.667173 
L 82.119685 206.913374 
L 82.998425 206.913374 
L 82.998425 205.536474 
L 83.877165 205.536474 
L 83.877165 202.094225 
L 84.755906 202.094225 
L 84.755906 200.028875 
L 86.513386 200.028875 
L 86.513386 198.651976 
L 88.270866 198.651976 
L 88.270866 197.275076 
L 89.149606 197.275076 
L 89.149606 196.586626 
L 90.028346 196.586626 
L 90.028346 191.767477 
L 90.907087 191.767477 
L 90.907087 189.013678 
L 91.785827 189.013678 
L 91.785827 183.506079 
L 92.664567 183.506079 
L 92.664567 182.817629 
L 93.543307 182.817629 
L 93.543307 182.129179 
L 94.422047 182.129179 
L 94.422047 180.75228 
L 95.300787 180.75228 
L 95.300787 180.06383 
L 96.179528 180.06383 
L 96.179528 178.68693 
L 97.058268 178.68693 
L 97.058268 177.99848 
L 98.815748 177.99848 
L 98.815748 177.31003 
L 99.694488 177.31003 
L 99.694488 175.244681 
L 100.573228 175.244681 
L 100.573228 174.556231 
L 101.451969 174.556231 
L 101.451969 172.490881 
L 103.209449 172.490881 
L 103.209449 171.113982 
L 104.088189 171.113982 
L 104.088189 168.360182 
L 106.724409 168.360182 
L 106.724409 167.671733 
L 108.48189 167.671733 
L 108.48189 166.294833 
L 109.36063 166.294833 
L 109.36063 160.098784 
L 112.875591 160.098784 
L 112.875591 158.721884 
L 114.633071 158.721884 
L 114.633071 157.344985 
L 115.511811 157.344985 
L 115.511811 155.968085 
L 116.390551 155.968085 
L 116.390551 155.279635 
L 119.905512 155.279635 
L 119.905512 154.591185 
L 120.784252 154.591185 
L 120.784252 153.214286 
L 121.662992 153.214286 
L 121.662992 152.525836 
L 126.056693 152.525836 
L 126.056693 149.083587 
L 129.571654 149.083587 
L 129.571654 148.395137 
L 130.450394 148.395137 
L 130.450394 147.706687 
L 132.207874 147.706687 
L 132.207874 144.952888 
L 133.086614 144.952888 
L 133.086614 143.575988 
L 134.844094 143.575988 
L 134.844094 142.887538 
L 137.480315 142.887538 
L 137.480315 142.199088 
L 138.359055 142.199088 
L 138.359055 140.822188 
L 140.995276 140.822188 
L 140.995276 140.133739 
L 141.874016 140.133739 
L 141.874016 138.068389 
L 142.752756 138.068389 
L 142.752756 136.00304 
L 146.267717 136.00304 
L 146.267717 133.93769 
L 148.025197 133.93769 
L 148.025197 133.24924 
L 150.661417 133.24924 
L 150.661417 131.87234 
L 152.418898 131.87234 
L 152.418898 131.183891 
L 154.176378 131.183891 
L 154.176378 130.495441 
L 155.055118 130.495441 
L 155.055118 128.430091 
L 155.933858 128.430091 
L 155.933858 127.741641 
L 156.812598 127.741641 
L 156.812598 124.987842 
L 157.691339 124.987842 
L 157.691339 121.545593 
L 159.448819 121.545593 
L 159.448819 120.857143 
L 160.327559 120.857143 
L 160.327559 120.168693 
L 161.206299 120.168693 
L 161.206299 118.103343 
L 162.085039 118.103343 
L 162.085039 117.414894 
L 162.96378 117.414894 
L 162.96378 116.037994 
L 163.84252 116.037994 
L 163.84252 115.349544 
L 169.114961 115.349544 
L 169.114961 112.595745 
L 169.993701 112.595745 
L 169.993701 111.907295 
L 170.872441 111.907295 
L 170.872441 111.218845 
L 180.538583 111.218845 
L 180.538583 110.530395 
L 182.296063 110.530395 
L 182.296063 109.841945 
L 186.689764 109.841945 
L 186.689764 105.711246 
L 192.840945 105.711246 
L 192.840945 105.022796 
L 194.598425 105.022796 
L 194.598425 102.957447 
L 195.477165 102.957447 
L 195.477165 102.268997 
L 196.355906 102.268997 
L 196.355906 101.580547 
L 198.992126 101.580547 
L 198.992126 100.892097 
L 201.628346 100.892097 
L 201.628346 99.515198 
L 202.507087 99.515198 
L 202.507087 98.826748 
L 203.385827 98.826748 
L 203.385827 98.138298 
L 204.264567 98.138298 
L 204.264567 96.072948 
L 207.779528 96.072948 
L 207.779528 95.384498 
L 208.658268 95.384498 
L 208.658268 94.007599 
L 213.051969 94.007599 
L 213.051969 93.319149 
L 217.445669 93.319149 
L 217.445669 92.630699 
L 220.96063 92.630699 
L 220.96063 91.942249 
L 225.354331 91.942249 
L 225.354331 91.253799 
L 227.990551 91.253799 
L 227.990551 90.56535 
L 228.869291 90.56535 
L 228.869291 89.8769 
L 229.748031 89.8769 
L 229.748031 87.81155 
L 232.384252 87.81155 
L 232.384252 85.746201 
L 235.020472 85.746201 
L 235.020472 84.369301 
L 237.656693 84.369301 
L 237.656693 83.680851 
L 238.535433 83.680851 
L 238.535433 82.992401 
L 242.929134 82.992401 
L 242.929134 82.303951 
L 249.080315 82.303951 
L 249.080315 80.927052 
L 250.837795 80.927052 
L 250.837795 80.238602 
L 251.716535 80.238602 
L 251.716535 79.550152 
L 254.352756 79.550152 
L 254.352756 78.861702 
L 255.231496 78.861702 
L 255.231496 76.107903 
L 258.746457 76.107903 
L 258.746457 74.731003 
L 259.625197 74.731003 
L 259.625197 73.354103 
L 260.503937 73.354103 
L 260.503937 71.977204 
L 264.897638 71.977204 
L 264.897638 69.911854 
L 265.776378 69.911854 
L 265.776378 69.223404 
L 269.291339 69.223404 
L 269.291339 68.534954 
L 273.685039 68.534954 
L 273.685039 67.158055 
L 274.56378 67.158055 
L 274.56378 65.781155 
L 276.32126 65.781155 
L 276.32126 65.092705 
L 285.108661 65.092705 
L 285.108661 64.404255 
L 289.502362 64.404255 
L 289.502362 63.027356 
L 294.774803 63.027356 
L 294.774803 62.338906 
L 302.683465 62.338906 
L 302.683465 61.650456 
L 327.288189 61.650456 
L 327.288189 60.962006 
L 340.469291 60.962006 
L 340.469291 60.273556 
L 341.348031 60.273556 
L 341.348031 59.585106 
L 351.892913 59.585106 
L 351.892913 58.896657 
L 353.650394 58.896657 
L 353.650394 56.831307 
L 362.437795 56.831307 
L 362.437795 56.142857 
L 388.8 56.142857 
L 388.8 56.142857 
" clip-path="url(#pea90f03047)" style="fill: none; stroke: #4169e1; stroke-width: 2; stroke-linecap: square"/>
   </g>
   <g id="line2d_14">
    <path d="M 54 315 
L 54 303.984802 
L 54.87874 303.984802 
L 54.87874 297.100304 
L 55.75748 297.100304 
L 55.75748 295.034954 
L 56.63622 295.034954 
L 56.63622 292.969605 
L 57.514961 292.969605 
L 57.514961 284.708207 
L 58.393701 284.708207 
L 58.393701 281.954407 
L 59.272441 281.954407 
L 59.272441 278.512158 
L 60.151181 278.512158 
L 60.151181 274.381459 
L 61.029921 274.381459 
L 61.029921 273.004559 
L 61.908661 273.004559 
L 61.908661 270.93921 
L 63.666142 270.93921 
L 63.666142 266.808511 
L 64.544882 266.808511 
L 64.544882 258.547112 
L 66.302362 258.547112 
L 66.302362 250.285714 
L 67.181102 250.285714 
L 67.181102 243.401216 
L 68.059843 243.401216 
L 68.059843 241.335866 
L 68.938583 241.335866 
L 68.938583 232.386018 
L 72.453543 232.386018 
L 72.453543 231.697568 
L 74.211024 231.697568 
L 74.211024 230.320669 
L 75.089764 230.320669 
L 75.089764 219.993921 
L 76.847244 219.993921 
L 76.847244 218.617021 
L 78.604724 218.617021 
L 78.604724 213.797872 
L 79.483465 213.797872 
L 79.483465 210.355623 
L 80.362205 210.355623 
L 80.362205 208.978723 
L 81.240945 208.978723 
L 81.240945 208.290274 
L 82.119685 208.290274 
L 82.119685 204.848024 
L 82.998425 204.848024 
L 82.998425 204.159574 
L 83.877165 204.159574 
L 83.877165 199.340426 
L 84.755906 199.340426 
L 84.755906 197.275076 
L 85.634646 197.275076 
L 85.634646 194.521277 
L 86.513386 194.521277 
L 86.513386 191.767477 
L 87.392126 191.767477 
L 87.392126 185.571429 
L 88.270866 185.571429 
L 88.270866 184.882979 
L 89.149606 184.882979 
L 89.149606 183.506079 
L 90.907087 183.506079 
L 90.907087 182.129179 
L 91.785827 182.129179 
L 91.785827 181.440729 
L 92.664567 181.440729 
L 92.664567 180.75228 
L 94.422047 180.75228 
L 94.422047 180.06383 
L 95.300787 180.06383 
L 95.300787 179.37538 
L 97.058268 179.37538 
L 97.058268 177.31003 
L 98.815748 177.31003 
L 98.815748 173.867781 
L 99.694488 173.867781 
L 99.694488 170.425532 
L 100.573228 170.425532 
L 100.573228 169.048632 
L 103.209449 169.048632 
L 103.209449 166.983283 
L 105.845669 166.983283 
L 105.845669 164.917933 
L 106.724409 164.917933 
L 106.724409 163.541033 
L 107.60315 163.541033 
L 107.60315 162.852584 
L 108.48189 162.852584 
L 108.48189 160.098784 
L 109.36063 160.098784 
L 109.36063 153.214286 
L 110.23937 153.214286 
L 110.23937 152.525836 
L 112.875591 152.525836 
L 112.875591 151.148936 
L 115.511811 151.148936 
L 115.511811 149.772036 
L 116.390551 149.772036 
L 116.390551 147.018237 
L 117.269291 147.018237 
L 117.269291 146.329787 
L 118.148031 146.329787 
L 118.148031 144.952888 
L 119.905512 144.952888 
L 119.905512 144.264438 
L 120.784252 144.264438 
L 120.784252 143.575988 
L 122.541732 143.575988 
L 122.541732 142.887538 
L 123.420472 142.887538 
L 123.420472 142.199088 
L 125.177953 142.199088 
L 125.177953 141.510638 
L 126.935433 141.510638 
L 126.935433 140.822188 
L 128.692913 140.822188 
L 128.692913 140.133739 
L 130.450394 140.133739 
L 130.450394 139.445289 
L 131.329134 139.445289 
L 131.329134 138.068389 
L 133.086614 138.068389 
L 133.086614 135.31459 
L 134.844094 135.31459 
L 134.844094 133.93769 
L 136.601575 133.93769 
L 136.601575 131.183891 
L 140.116535 131.183891 
L 140.116535 129.806991 
L 147.146457 129.806991 
L 147.146457 129.118541 
L 148.903937 129.118541 
L 148.903937 127.741641 
L 149.782677 127.741641 
L 149.782677 127.053191 
L 151.540157 127.053191 
L 151.540157 126.364742 
L 153.297638 126.364742 
L 153.297638 125.676292 
L 154.176378 125.676292 
L 154.176378 124.987842 
L 155.055118 124.987842 
L 155.055118 120.857143 
L 155.933858 120.857143 
L 155.933858 118.791793 
L 156.812598 118.791793 
L 156.812598 117.414894 
L 157.691339 117.414894 
L 157.691339 113.972644 
L 158.570079 113.972644 
L 158.570079 113.284195 
L 161.206299 113.284195 
L 161.206299 112.595745 
L 162.085039 112.595745 
L 162.085039 111.907295 
L 167.35748 111.907295 
L 167.35748 111.218845 
L 171.751181 111.218845 
L 171.751181 110.530395 
L 175.266142 110.530395 
L 175.266142 109.841945 
L 177.902362 109.841945 
L 177.902362 109.153495 
L 180.538583 109.153495 
L 180.538583 107.776596 
L 181.417323 107.776596 
L 181.417323 107.088146 
L 184.932283 107.088146 
L 184.932283 105.022796 
L 187.568504 105.022796 
L 187.568504 103.645897 
L 188.447244 103.645897 
L 188.447244 102.268997 
L 189.325984 102.268997 
L 189.325984 101.580547 
L 191.962205 101.580547 
L 191.962205 100.892097 
L 193.719685 100.892097 
L 193.719685 99.515198 
L 194.598425 99.515198 
L 194.598425 96.761398 
L 195.477165 96.761398 
L 195.477165 95.384498 
L 200.749606 95.384498 
L 200.749606 94.696049 
L 204.264567 94.696049 
L 204.264567 94.007599 
L 206.022047 94.007599 
L 206.022047 93.319149 
L 206.900787 93.319149 
L 206.900787 91.942249 
L 208.658268 91.942249 
L 208.658268 90.56535 
L 210.415748 90.56535 
L 210.415748 88.5 
L 211.294488 88.5 
L 211.294488 87.81155 
L 215.688189 87.81155 
L 215.688189 87.1231 
L 216.566929 87.1231 
L 216.566929 85.746201 
L 222.71811 85.746201 
L 222.71811 85.057751 
L 226.233071 85.057751 
L 226.233071 84.369301 
L 227.111811 84.369301 
L 227.111811 83.680851 
L 229.748031 83.680851 
L 229.748031 82.992401 
L 230.626772 82.992401 
L 230.626772 81.615502 
L 234.141732 81.615502 
L 234.141732 80.927052 
L 245.565354 80.927052 
L 245.565354 78.861702 
L 246.444094 78.861702 
L 246.444094 77.484802 
L 249.959055 77.484802 
L 249.959055 76.107903 
L 250.837795 76.107903 
L 250.837795 75.419453 
L 252.595276 75.419453 
L 252.595276 74.731003 
L 254.352756 74.731003 
L 254.352756 74.042553 
L 260.503937 74.042553 
L 260.503937 73.354103 
L 262.261417 73.354103 
L 262.261417 71.977204 
L 264.018898 71.977204 
L 264.018898 71.288754 
L 264.897638 71.288754 
L 264.897638 69.911854 
L 265.776378 69.911854 
L 265.776378 67.158055 
L 271.048819 67.158055 
L 271.048819 66.469605 
L 275.44252 66.469605 
L 275.44252 65.781155 
L 282.472441 65.781155 
L 282.472441 65.092705 
L 285.108661 65.092705 
L 285.108661 64.404255 
L 289.502362 64.404255 
L 289.502362 63.715805 
L 293.896063 63.715805 
L 293.896063 63.027356 
L 300.925984 63.027356 
L 300.925984 62.338906 
L 306.198425 62.338906 
L 306.198425 61.650456 
L 312.349606 61.650456 
L 312.349606 60.962006 
L 336.954331 60.962006 
L 336.954331 60.273556 
L 347.499213 60.273556 
L 347.499213 59.585106 
L 348.377953 59.585106 
L 348.377953 58.896657 
L 351.014173 58.896657 
L 351.014173 57.519757 
L 352.771654 57.519757 
L 352.771654 56.831307 
L 358.922835 56.831307 
L 358.922835 56.142857 
L 388.8 56.142857 
L 388.8 56.142857 
" clip-path="url(#pea90f03047)" style="fill: none; stroke: #ff8c00; stroke-width: 2; stroke-linecap: square"/>
   </g>
   <g id="line2d_15">
    <path d="M 54 315 
L 54 307.427052 
L 54.87874 307.427052 
L 54.87874 300.542553 
L 55.75748 300.542553 
L 55.75748 297.100304 
L 56.63622 297.100304 
L 56.63622 292.281155 
L 57.514961 292.281155 
L 57.514961 288.150456 
L 58.393701 288.150456 
L 58.393701 282.642857 
L 59.272441 282.642857 
L 59.272441 277.135258 
L 60.151181 277.135258 
L 60.151181 270.25076 
L 61.908661 270.25076 
L 61.908661 269.56231 
L 63.666142 269.56231 
L 63.666142 263.366261 
L 65.423622 263.366261 
L 65.423622 261.300912 
L 66.302362 261.300912 
L 66.302362 258.547112 
L 67.181102 258.547112 
L 67.181102 252.351064 
L 68.059843 252.351064 
L 68.059843 247.531915 
L 68.938583 247.531915 
L 68.938583 246.155015 
L 69.817323 246.155015 
L 69.817323 236.516717 
L 70.696063 236.516717 
L 70.696063 234.451368 
L 72.453543 234.451368 
L 72.453543 233.762918 
L 73.332283 233.762918 
L 73.332283 233.074468 
L 74.211024 233.074468 
L 74.211024 232.386018 
L 75.089764 232.386018 
L 75.089764 227.566869 
L 75.968504 227.566869 
L 75.968504 226.18997 
L 76.847244 226.18997 
L 76.847244 222.059271 
L 77.725984 222.059271 
L 77.725984 221.370821 
L 78.604724 221.370821 
L 78.604724 220.682371 
L 79.483465 220.682371 
L 79.483465 219.305471 
L 80.362205 219.305471 
L 80.362205 217.240122 
L 81.240945 217.240122 
L 81.240945 213.797872 
L 82.119685 213.797872 
L 82.119685 207.601824 
L 82.998425 207.601824 
L 82.998425 206.913374 
L 83.877165 206.913374 
L 83.877165 204.848024 
L 84.755906 204.848024 
L 84.755906 204.159574 
L 85.634646 204.159574 
L 85.634646 202.782675 
L 86.513386 202.782675 
L 86.513386 202.094225 
L 87.392126 202.094225 
L 87.392126 200.028875 
L 89.149606 200.028875 
L 89.149606 199.340426 
L 90.028346 199.340426 
L 90.028346 197.275076 
L 90.907087 197.275076 
L 90.907087 193.832827 
L 91.785827 193.832827 
L 91.785827 190.390578 
L 92.664567 190.390578 
L 92.664567 189.013678 
L 93.543307 189.013678 
L 93.543307 180.75228 
L 95.300787 180.75228 
L 95.300787 179.37538 
L 96.179528 179.37538 
L 96.179528 174.556231 
L 97.058268 174.556231 
L 97.058268 173.867781 
L 97.937008 173.867781 
L 97.937008 171.802432 
L 98.815748 171.802432 
L 98.815748 171.113982 
L 102.330709 171.113982 
L 102.330709 170.425532 
L 103.209449 170.425532 
L 103.209449 169.737082 
L 104.088189 169.737082 
L 104.088189 167.671733 
L 104.966929 167.671733 
L 104.966929 166.983283 
L 105.845669 166.983283 
L 105.845669 164.229483 
L 106.724409 164.229483 
L 106.724409 163.541033 
L 107.60315 163.541033 
L 107.60315 162.164134 
L 110.23937 162.164134 
L 110.23937 160.787234 
L 113.754331 160.787234 
L 113.754331 159.410334 
L 116.390551 159.410334 
L 116.390551 158.721884 
L 117.269291 158.721884 
L 117.269291 156.656535 
L 118.148031 156.656535 
L 118.148031 155.968085 
L 119.905512 155.968085 
L 119.905512 153.902736 
L 120.784252 153.902736 
L 120.784252 151.837386 
L 121.662992 151.837386 
L 121.662992 151.148936 
L 122.541732 151.148936 
L 122.541732 149.772036 
L 123.420472 149.772036 
L 123.420472 149.083587 
L 126.935433 149.083587 
L 126.935433 147.018237 
L 127.814173 147.018237 
L 127.814173 143.575988 
L 129.571654 143.575988 
L 129.571654 142.199088 
L 131.329134 142.199088 
L 131.329134 141.510638 
L 138.359055 141.510638 
L 138.359055 140.133739 
L 139.237795 140.133739 
L 139.237795 138.756839 
L 140.995276 138.756839 
L 140.995276 138.068389 
L 141.874016 138.068389 
L 141.874016 137.379939 
L 142.752756 137.379939 
L 142.752756 134.62614 
L 145.388976 134.62614 
L 145.388976 133.24924 
L 147.146457 133.24924 
L 147.146457 132.56079 
L 148.025197 132.56079 
L 148.025197 130.495441 
L 149.782677 130.495441 
L 149.782677 129.118541 
L 151.540157 129.118541 
L 151.540157 127.053191 
L 152.418898 127.053191 
L 152.418898 123.610942 
L 155.055118 123.610942 
L 155.055118 122.234043 
L 155.933858 122.234043 
L 155.933858 120.857143 
L 156.812598 120.857143 
L 156.812598 120.168693 
L 157.691339 120.168693 
L 157.691339 118.791793 
L 159.448819 118.791793 
L 159.448819 118.103343 
L 161.206299 118.103343 
L 161.206299 117.414894 
L 163.84252 117.414894 
L 163.84252 116.726444 
L 164.72126 116.726444 
L 164.72126 115.349544 
L 165.6 115.349544 
L 165.6 114.661094 
L 168.23622 114.661094 
L 168.23622 113.972644 
L 172.629921 113.972644 
L 172.629921 113.284195 
L 173.508661 113.284195 
L 173.508661 112.595745 
L 176.144882 112.595745 
L 176.144882 111.907295 
L 177.023622 111.907295 
L 177.023622 111.218845 
L 178.781102 111.218845 
L 178.781102 110.530395 
L 181.417323 110.530395 
L 181.417323 109.841945 
L 183.174803 109.841945 
L 183.174803 106.399696 
L 184.053543 106.399696 
L 184.053543 104.334347 
L 184.932283 104.334347 
L 184.932283 103.645897 
L 185.811024 103.645897 
L 185.811024 102.268997 
L 188.447244 102.268997 
L 188.447244 101.580547 
L 191.083465 101.580547 
L 191.083465 100.203647 
L 191.962205 100.203647 
L 191.962205 98.826748 
L 194.598425 98.826748 
L 194.598425 98.138298 
L 195.477165 98.138298 
L 195.477165 97.449848 
L 197.234646 97.449848 
L 197.234646 96.072948 
L 203.385827 96.072948 
L 203.385827 94.007599 
L 206.900787 94.007599 
L 206.900787 92.630699 
L 207.779528 92.630699 
L 207.779528 91.942249 
L 209.537008 91.942249 
L 209.537008 90.56535 
L 219.20315 90.56535 
L 219.20315 88.5 
L 223.59685 88.5 
L 223.59685 87.1231 
L 227.990551 87.1231 
L 227.990551 86.43465 
L 228.869291 86.43465 
L 228.869291 85.746201 
L 232.384252 85.746201 
L 232.384252 84.369301 
L 234.141732 84.369301 
L 234.141732 83.680851 
L 235.020472 83.680851 
L 235.020472 82.992401 
L 235.899213 82.992401 
L 235.899213 81.615502 
L 240.292913 81.615502 
L 240.292913 80.927052 
L 246.444094 80.927052 
L 246.444094 79.550152 
L 249.959055 79.550152 
L 249.959055 78.861702 
L 252.595276 78.861702 
L 252.595276 76.796353 
L 257.867717 76.796353 
L 257.867717 75.419453 
L 258.746457 75.419453 
L 258.746457 74.731003 
L 260.503937 74.731003 
L 260.503937 74.042553 
L 262.261417 74.042553 
L 262.261417 73.354103 
L 264.897638 73.354103 
L 264.897638 72.665653 
L 265.776378 72.665653 
L 265.776378 71.977204 
L 268.412598 71.977204 
L 268.412598 71.288754 
L 270.170079 71.288754 
L 270.170079 69.223404 
L 271.927559 69.223404 
L 271.927559 68.534954 
L 274.56378 68.534954 
L 274.56378 67.158055 
L 276.32126 67.158055 
L 276.32126 66.469605 
L 277.2 66.469605 
L 277.2 65.781155 
L 285.987402 65.781155 
L 285.987402 65.092705 
L 293.017323 65.092705 
L 293.017323 64.404255 
L 303.562205 64.404255 
L 303.562205 63.027356 
L 308.834646 63.027356 
L 308.834646 62.338906 
L 323.773228 62.338906 
L 323.773228 60.962006 
L 336.075591 60.962006 
L 336.075591 60.273556 
L 343.105512 60.273556 
L 343.105512 58.896657 
L 343.984252 58.896657 
L 343.984252 57.519757 
L 351.014173 57.519757 
L 351.014173 56.831307 
L 361.559055 56.831307 
L 361.559055 56.142857 
L 388.8 56.142857 
L 388.8 56.142857 
" clip-path="url(#pea90f03047)" style="fill: none; stroke: #228b22; stroke-width: 2; stroke-linecap: square"/>
   </g>
   <g id="line2d_16">
    <path d="M 54 315 
L 54 299.854103 
L 54.87874 299.854103 
L 54.87874 299.165653 
L 55.75748 299.165653 
L 55.75748 292.281155 
L 56.63622 292.281155 
L 56.63622 290.215805 
L 57.514961 290.215805 
L 57.514961 288.838906 
L 58.393701 288.838906 
L 58.393701 281.954407 
L 59.272441 281.954407 
L 59.272441 277.823708 
L 61.029921 277.823708 
L 61.029921 270.25076 
L 61.908661 270.25076 
L 61.908661 266.808511 
L 62.787402 266.808511 
L 62.787402 262.677812 
L 63.666142 262.677812 
L 63.666142 256.481763 
L 64.544882 256.481763 
L 64.544882 255.104863 
L 65.423622 255.104863 
L 65.423622 247.531915 
L 66.302362 247.531915 
L 66.302362 246.843465 
L 67.181102 246.843465 
L 67.181102 237.893617 
L 68.059843 237.893617 
L 68.059843 235.828267 
L 68.938583 235.828267 
L 68.938583 233.074468 
L 69.817323 233.074468 
L 69.817323 232.386018 
L 71.574803 232.386018 
L 71.574803 231.697568 
L 72.453543 231.697568 
L 72.453543 219.305471 
L 73.332283 219.305471 
L 73.332283 218.617021 
L 74.211024 218.617021 
L 74.211024 216.551672 
L 76.847244 216.551672 
L 76.847244 211.732523 
L 77.725984 211.732523 
L 77.725984 208.290274 
L 78.604724 208.290274 
L 78.604724 206.913374 
L 79.483465 206.913374 
L 79.483465 205.536474 
L 80.362205 205.536474 
L 80.362205 204.159574 
L 81.240945 204.159574 
L 81.240945 203.471125 
L 82.119685 203.471125 
L 82.119685 200.717325 
L 82.998425 200.717325 
L 82.998425 200.028875 
L 83.877165 200.028875 
L 83.877165 199.340426 
L 84.755906 199.340426 
L 84.755906 198.651976 
L 85.634646 198.651976 
L 85.634646 196.586626 
L 86.513386 196.586626 
L 86.513386 193.144377 
L 87.392126 193.144377 
L 87.392126 186.948328 
L 88.270866 186.948328 
L 88.270866 185.571429 
L 90.028346 185.571429 
L 90.028346 182.817629 
L 90.907087 182.817629 
L 90.907087 181.440729 
L 91.785827 181.440729 
L 91.785827 177.99848 
L 92.664567 177.99848 
L 92.664567 175.933131 
L 93.543307 175.933131 
L 93.543307 175.244681 
L 94.422047 175.244681 
L 94.422047 173.867781 
L 95.300787 173.867781 
L 95.300787 173.179331 
L 96.179528 173.179331 
L 96.179528 170.425532 
L 97.058268 170.425532 
L 97.058268 169.048632 
L 102.330709 169.048632 
L 102.330709 162.852584 
L 104.088189 162.852584 
L 104.088189 158.033435 
L 104.966929 158.033435 
L 104.966929 157.344985 
L 105.845669 157.344985 
L 105.845669 153.902736 
L 106.724409 153.902736 
L 106.724409 153.214286 
L 107.60315 153.214286 
L 107.60315 151.148936 
L 109.36063 151.148936 
L 109.36063 150.460486 
L 110.23937 150.460486 
L 110.23937 149.772036 
L 111.99685 149.772036 
L 111.99685 148.395137 
L 112.875591 148.395137 
L 112.875591 145.641337 
L 113.754331 145.641337 
L 113.754331 144.952888 
L 115.511811 144.952888 
L 115.511811 141.510638 
L 116.390551 141.510638 
L 116.390551 140.822188 
L 117.269291 140.822188 
L 117.269291 139.445289 
L 119.026772 139.445289 
L 119.026772 138.068389 
L 119.905512 138.068389 
L 119.905512 136.691489 
L 120.784252 136.691489 
L 120.784252 134.62614 
L 121.662992 134.62614 
L 121.662992 133.93769 
L 126.935433 133.93769 
L 126.935433 133.24924 
L 127.814173 133.24924 
L 127.814173 131.87234 
L 129.571654 131.87234 
L 129.571654 130.495441 
L 130.450394 130.495441 
L 130.450394 129.118541 
L 131.329134 129.118541 
L 131.329134 128.430091 
L 132.207874 128.430091 
L 132.207874 127.053191 
L 133.086614 127.053191 
L 133.086614 125.676292 
L 134.844094 125.676292 
L 134.844094 124.987842 
L 135.722835 124.987842 
L 135.722835 124.299392 
L 136.601575 124.299392 
L 136.601575 122.922492 
L 138.359055 122.922492 
L 138.359055 121.545593 
L 141.874016 121.545593 
L 141.874016 120.857143 
L 143.631496 120.857143 
L 143.631496 120.168693 
L 145.388976 120.168693 
L 145.388976 119.480243 
L 146.267717 119.480243 
L 146.267717 118.791793 
L 148.025197 118.791793 
L 148.025197 117.414894 
L 149.782677 117.414894 
L 149.782677 116.037994 
L 150.661417 116.037994 
L 150.661417 115.349544 
L 151.540157 115.349544 
L 151.540157 114.661094 
L 152.418898 114.661094 
L 152.418898 113.284195 
L 154.176378 113.284195 
L 154.176378 112.595745 
L 156.812598 112.595745 
L 156.812598 111.907295 
L 159.448819 111.907295 
L 159.448819 111.218845 
L 161.206299 111.218845 
L 161.206299 109.841945 
L 162.085039 109.841945 
L 162.085039 109.153495 
L 164.72126 109.153495 
L 164.72126 108.465046 
L 173.508661 108.465046 
L 173.508661 106.399696 
L 176.144882 106.399696 
L 176.144882 105.711246 
L 177.023622 105.711246 
L 177.023622 104.334347 
L 179.659843 104.334347 
L 179.659843 103.645897 
L 180.538583 103.645897 
L 180.538583 102.957447 
L 181.417323 102.957447 
L 181.417323 100.203647 
L 186.689764 100.203647 
L 186.689764 99.515198 
L 190.204724 99.515198 
L 190.204724 98.826748 
L 191.083465 98.826748 
L 191.083465 98.138298 
L 191.962205 98.138298 
L 191.962205 97.449848 
L 193.719685 97.449848 
L 193.719685 96.761398 
L 194.598425 96.761398 
L 194.598425 95.384498 
L 196.355906 95.384498 
L 196.355906 94.007599 
L 201.628346 94.007599 
L 201.628346 93.319149 
L 202.507087 93.319149 
L 202.507087 90.56535 
L 203.385827 90.56535 
L 203.385827 89.18845 
L 206.022047 89.18845 
L 206.022047 87.1231 
L 209.537008 87.1231 
L 209.537008 86.43465 
L 210.415748 86.43465 
L 210.415748 85.057751 
L 211.294488 85.057751 
L 211.294488 83.680851 
L 216.566929 83.680851 
L 216.566929 82.992401 
L 219.20315 82.992401 
L 219.20315 82.303951 
L 220.08189 82.303951 
L 220.08189 81.615502 
L 220.96063 81.615502 
L 220.96063 80.238602 
L 223.59685 80.238602 
L 223.59685 78.861702 
L 224.475591 78.861702 
L 224.475591 78.173252 
L 226.233071 78.173252 
L 226.233071 77.484802 
L 227.990551 77.484802 
L 227.990551 76.796353 
L 229.748031 76.796353 
L 229.748031 75.419453 
L 231.505512 75.419453 
L 231.505512 74.731003 
L 234.141732 74.731003 
L 234.141732 74.042553 
L 242.050394 74.042553 
L 242.050394 73.354103 
L 243.807874 73.354103 
L 243.807874 72.665653 
L 249.959055 72.665653 
L 249.959055 71.977204 
L 250.837795 71.977204 
L 250.837795 71.288754 
L 255.231496 71.288754 
L 255.231496 70.600304 
L 260.503937 70.600304 
L 260.503937 69.911854 
L 261.382677 69.911854 
L 261.382677 69.223404 
L 262.261417 69.223404 
L 262.261417 68.534954 
L 265.776378 68.534954 
L 265.776378 67.158055 
L 266.655118 67.158055 
L 266.655118 66.469605 
L 270.170079 66.469605 
L 270.170079 65.781155 
L 276.32126 65.781155 
L 276.32126 65.092705 
L 280.714961 65.092705 
L 280.714961 64.404255 
L 281.593701 64.404255 
L 281.593701 63.715805 
L 283.351181 63.715805 
L 283.351181 63.027356 
L 299.168504 63.027356 
L 299.168504 62.338906 
L 300.047244 62.338906 
L 300.047244 61.650456 
L 317.622047 61.650456 
L 317.622047 60.962006 
L 339.590551 60.962006 
L 339.590551 60.273556 
L 344.862992 60.273556 
L 344.862992 59.585106 
L 346.620472 59.585106 
L 346.620472 58.896657 
L 351.014173 58.896657 
L 351.014173 58.208207 
L 353.650394 58.208207 
L 353.650394 57.519757 
L 355.407874 57.519757 
L 355.407874 56.831307 
L 360.680315 56.831307 
L 360.680315 56.142857 
L 388.8 56.142857 
L 388.8 56.142857 
" clip-path="url(#pea90f03047)" style="fill: none; stroke: #9370db; stroke-width: 2; stroke-linecap: square"/>
   </g>
   <g id="line2d_17">
    <path d="M 54 315 
L 54 286.085106 
L 54.87874 286.085106 
L 54.87874 283.331307 
L 56.63622 283.331307 
L 56.63622 273.693009 
L 57.514961 273.693009 
L 57.514961 268.87386 
L 58.393701 268.87386 
L 58.393701 264.054711 
L 59.272441 264.054711 
L 59.272441 261.300912 
L 60.151181 261.300912 
L 60.151181 259.924012 
L 61.029921 259.924012 
L 61.029921 257.858663 
L 61.908661 257.858663 
L 61.908661 243.401216 
L 62.787402 243.401216 
L 62.787402 242.712766 
L 64.544882 242.712766 
L 64.544882 237.205167 
L 65.423622 237.205167 
L 65.423622 233.074468 
L 67.181102 233.074468 
L 67.181102 225.50152 
L 68.059843 225.50152 
L 68.059843 222.059271 
L 69.817323 222.059271 
L 69.817323 217.928571 
L 72.453543 217.928571 
L 72.453543 213.797872 
L 73.332283 213.797872 
L 73.332283 210.355623 
L 74.211024 210.355623 
L 74.211024 202.094225 
L 75.089764 202.094225 
L 75.089764 197.963526 
L 75.968504 197.963526 
L 75.968504 194.521277 
L 77.725984 194.521277 
L 77.725984 190.390578 
L 78.604724 190.390578 
L 78.604724 189.013678 
L 79.483465 189.013678 
L 79.483465 180.06383 
L 80.362205 180.06383 
L 80.362205 179.37538 
L 81.240945 179.37538 
L 81.240945 177.99848 
L 82.998425 177.99848 
L 82.998425 175.244681 
L 84.755906 175.244681 
L 84.755906 168.360182 
L 90.028346 168.360182 
L 90.028346 166.983283 
L 90.907087 166.983283 
L 90.907087 165.606383 
L 91.785827 165.606383 
L 91.785827 164.917933 
L 93.543307 164.917933 
L 93.543307 162.852584 
L 95.300787 162.852584 
L 95.300787 162.164134 
L 97.058268 162.164134 
L 97.058268 156.656535 
L 97.937008 156.656535 
L 97.937008 155.968085 
L 100.573228 155.968085 
L 100.573228 154.591185 
L 101.451969 154.591185 
L 101.451969 153.902736 
L 104.088189 153.902736 
L 104.088189 153.214286 
L 105.845669 153.214286 
L 105.845669 152.525836 
L 107.60315 152.525836 
L 107.60315 149.772036 
L 108.48189 149.772036 
L 108.48189 144.264438 
L 109.36063 144.264438 
L 109.36063 143.575988 
L 111.11811 143.575988 
L 111.11811 140.822188 
L 111.99685 140.822188 
L 111.99685 140.133739 
L 112.875591 140.133739 
L 112.875591 139.445289 
L 114.633071 139.445289 
L 114.633071 138.756839 
L 116.390551 138.756839 
L 116.390551 137.379939 
L 117.269291 137.379939 
L 117.269291 136.691489 
L 118.148031 136.691489 
L 118.148031 136.00304 
L 123.420472 136.00304 
L 123.420472 135.31459 
L 124.299213 135.31459 
L 124.299213 134.62614 
L 125.177953 134.62614 
L 125.177953 131.183891 
L 126.935433 131.183891 
L 126.935433 129.118541 
L 127.814173 129.118541 
L 127.814173 128.430091 
L 129.571654 128.430091 
L 129.571654 127.741641 
L 130.450394 127.741641 
L 130.450394 124.987842 
L 131.329134 124.987842 
L 131.329134 122.922492 
L 132.207874 122.922492 
L 132.207874 121.545593 
L 134.844094 121.545593 
L 134.844094 120.857143 
L 135.722835 120.857143 
L 135.722835 120.168693 
L 140.116535 120.168693 
L 140.116535 119.480243 
L 140.995276 119.480243 
L 140.995276 118.791793 
L 142.752756 118.791793 
L 142.752756 117.414894 
L 143.631496 117.414894 
L 143.631496 115.349544 
L 144.510236 115.349544 
L 144.510236 114.661094 
L 145.388976 114.661094 
L 145.388976 113.972644 
L 146.267717 113.972644 
L 146.267717 111.907295 
L 147.146457 111.907295 
L 147.146457 111.218845 
L 148.025197 111.218845 
L 148.025197 110.530395 
L 148.903937 110.530395 
L 148.903937 109.153495 
L 151.540157 109.153495 
L 151.540157 107.088146 
L 157.691339 107.088146 
L 157.691339 102.957447 
L 158.570079 102.957447 
L 158.570079 102.268997 
L 159.448819 102.268997 
L 159.448819 101.580547 
L 162.085039 101.580547 
L 162.085039 100.892097 
L 169.114961 100.892097 
L 169.114961 100.203647 
L 169.993701 100.203647 
L 169.993701 94.696049 
L 170.872441 94.696049 
L 170.872441 94.007599 
L 172.629921 94.007599 
L 172.629921 91.253799 
L 174.387402 91.253799 
L 174.387402 90.56535 
L 178.781102 90.56535 
L 178.781102 89.8769 
L 180.538583 89.8769 
L 180.538583 88.5 
L 187.568504 88.5 
L 187.568504 87.81155 
L 188.447244 87.81155 
L 188.447244 87.1231 
L 189.325984 87.1231 
L 189.325984 86.43465 
L 191.083465 86.43465 
L 191.083465 85.057751 
L 192.840945 85.057751 
L 192.840945 83.680851 
L 198.113386 83.680851 
L 198.113386 82.992401 
L 199.870866 82.992401 
L 199.870866 81.615502 
L 202.507087 81.615502 
L 202.507087 80.927052 
L 203.385827 80.927052 
L 203.385827 80.238602 
L 205.143307 80.238602 
L 205.143307 78.861702 
L 207.779528 78.861702 
L 207.779528 78.173252 
L 208.658268 78.173252 
L 208.658268 77.484802 
L 210.415748 77.484802 
L 210.415748 76.796353 
L 216.566929 76.796353 
L 216.566929 76.107903 
L 217.445669 76.107903 
L 217.445669 74.042553 
L 223.59685 74.042553 
L 223.59685 73.354103 
L 226.233071 73.354103 
L 226.233071 71.977204 
L 227.990551 71.977204 
L 227.990551 70.600304 
L 233.262992 70.600304 
L 233.262992 69.911854 
L 235.020472 69.911854 
L 235.020472 69.223404 
L 236.777953 69.223404 
L 236.777953 68.534954 
L 247.322835 68.534954 
L 247.322835 67.846505 
L 256.988976 67.846505 
L 256.988976 67.158055 
L 258.746457 67.158055 
L 258.746457 66.469605 
L 263.140157 66.469605 
L 263.140157 65.781155 
L 264.018898 65.781155 
L 264.018898 65.092705 
L 265.776378 65.092705 
L 265.776378 63.715805 
L 267.533858 63.715805 
L 267.533858 63.027356 
L 270.170079 63.027356 
L 270.170079 62.338906 
L 296.532283 62.338906 
L 296.532283 61.650456 
L 320.258268 61.650456 
L 320.258268 60.962006 
L 330.80315 60.962006 
L 330.80315 58.896657 
L 332.56063 58.896657 
L 332.56063 58.208207 
L 343.984252 58.208207 
L 343.984252 57.519757 
L 348.377953 57.519757 
L 348.377953 56.142857 
L 388.8 56.142857 
L 388.8 56.142857 
" clip-path="url(#pea90f03047)" style="fill: none; stroke: #ff6347; stroke-width: 2; stroke-linecap: square"/>
   </g>
   <g id="line2d_18">
    <path d="M 54 315 
L 388.8 56.142857 
" clip-path="url(#pea90f03047)" style="fill: none; stroke-dasharray: 7.4,3.2; stroke-dashoffset: 0; stroke: #000080; stroke-width: 2"/>
   </g>
   <g id="patch_3">
    <path d="M 54 315 
L 54 43.2 
" style="fill: none; stroke: #000000; stroke-width: 0.8; stroke-linejoin: miter; stroke-linecap: square"/>
   </g>
   <g id="patch_4">
    <path d="M 388.8 315 
L 388.8 43.2 
" style="fill: none; stroke: #000000; stroke-width: 0.8; stroke-linejoin: miter; stroke-linecap: square"/>
   </g>
   <g id="patch_5">
    <path d="M 54 315 
L 388.8 315 
" style="fill: none; stroke: #000000; stroke-width: 0.8; stroke-linejoin: miter; stroke-linecap: square"/>
   </g>
   <g id="patch_6">
    <path d="M 54 43.2 
L 388.8 43.2 
" style="fill: none; stroke: #000000; stroke-width: 0.8; stroke-linejoin: miter; stroke-linecap: square"/>
   </g>
   <g id="text_15">
    <!-- Roc Curves under Independent Test (Ensemble) -->
    <g transform="translate(50.684766 37.2)scale(0.15 -0.15)">
     <defs>
      <path id="Arial-BoldMT-52" d="M 469 0 
L 469 4581 
L 2416 4581 
Q 3150 4581 3483 4457 
Q 3816 4334 4016 4018 
Q 4216 3703 4216 3297 
Q 4216 2781 3912 2445 
Q 3609 2109 3006 2022 
Q 3306 1847 3501 1637 
Q 3697 1428 4028 894 
L 4588 0 
L 3481 0 
L 2813 997 
Q 2456 1531 2325 1670 
Q 2194 1809 2047 1861 
Q 1900 1913 1581 1913 
L 1394 1913 
L 1394 0 
L 469 0 
z
M 1394 2644 
L 2078 2644 
Q 2744 2644 2909 2700 
Q 3075 2756 3169 2893 
Q 3263 3031 3263 3238 
Q 3263 3469 3139 3611 
Q 3016 3753 2791 3791 
Q 2678 3806 2116 3806 
L 1394 3806 
L 1394 2644 
z
" transform="scale(0.015625)"/>
      <path id="Arial-BoldMT-6f" d="M 256 1706 
Q 256 2144 472 2553 
Q 688 2963 1083 3178 
Q 1478 3394 1966 3394 
Q 2719 3394 3200 2905 
Q 3681 2416 3681 1669 
Q 3681 916 3195 420 
Q 2709 -75 1972 -75 
Q 1516 -75 1102 131 
Q 688 338 472 736 
Q 256 1134 256 1706 
z
M 1156 1659 
Q 1156 1166 1390 903 
Q 1625 641 1969 641 
Q 2313 641 2545 903 
Q 2778 1166 2778 1666 
Q 2778 2153 2545 2415 
Q 2313 2678 1969 2678 
Q 1625 2678 1390 2415 
Q 1156 2153 1156 1659 
z
" transform="scale(0.015625)"/>
      <path id="Arial-BoldMT-63" d="M 3353 2338 
L 2488 2181 
Q 2444 2441 2289 2572 
Q 2134 2703 1888 2703 
Q 1559 2703 1364 2476 
Q 1169 2250 1169 1719 
Q 1169 1128 1367 884 
Q 1566 641 1900 641 
Q 2150 641 2309 783 
Q 2469 925 2534 1272 
L 3397 1125 
Q 3263 531 2881 228 
Q 2500 -75 1859 -75 
Q 1131 -75 698 384 
Q 266 844 266 1656 
Q 266 2478 700 2936 
Q 1134 3394 1875 3394 
Q 2481 3394 2839 3133 
Q 3197 2872 3353 2338 
z
" transform="scale(0.015625)"/>
      <path id="Arial-BoldMT-20" transform="scale(0.015625)"/>
      <path id="Arial-BoldMT-43" d="M 3397 1684 
L 4294 1400 
Q 4088 650 3608 286 
Q 3128 -78 2391 -78 
Q 1478 -78 890 545 
Q 303 1169 303 2250 
Q 303 3394 893 4026 
Q 1484 4659 2447 4659 
Q 3288 4659 3813 4163 
Q 4125 3869 4281 3319 
L 3366 3100 
Q 3284 3456 3026 3662 
Q 2769 3869 2400 3869 
Q 1891 3869 1573 3503 
Q 1256 3138 1256 2319 
Q 1256 1450 1568 1081 
Q 1881 713 2381 713 
Q 2750 713 3015 947 
Q 3281 1181 3397 1684 
z
" transform="scale(0.015625)"/>
      <path id="Arial-BoldMT-75" d="M 2644 0 
L 2644 497 
Q 2463 231 2167 78 
Q 1872 -75 1544 -75 
Q 1209 -75 943 72 
Q 678 219 559 484 
Q 441 750 441 1219 
L 441 3319 
L 1319 3319 
L 1319 1794 
Q 1319 1094 1367 936 
Q 1416 778 1544 686 
Q 1672 594 1869 594 
Q 2094 594 2272 717 
Q 2450 841 2515 1023 
Q 2581 1206 2581 1919 
L 2581 3319 
L 3459 3319 
L 3459 0 
L 2644 0 
z
" transform="scale(0.015625)"/>
      <path id="Arial-BoldMT-72" d="M 1300 0 
L 422 0 
L 422 3319 
L 1238 3319 
L 1238 2847 
Q 1447 3181 1614 3287 
Q 1781 3394 1994 3394 
Q 2294 3394 2572 3228 
L 2300 2463 
Q 2078 2606 1888 2606 
Q 1703 2606 1575 2504 
Q 1447 2403 1373 2137 
Q 1300 1872 1300 1025 
L 1300 0 
z
" transform="scale(0.015625)"/>
      <path id="Arial-BoldMT-76" d="M 1372 0 
L 34 3319 
L 956 3319 
L 1581 1625 
L 1763 1059 
Q 1834 1275 1853 1344 
Q 1897 1484 1947 1625 
L 2578 3319 
L 3481 3319 
L 2163 0 
L 1372 0 
z
" transform="scale(0.015625)"/>
      <path id="Arial-BoldMT-65" d="M 2381 1056 
L 3256 909 
Q 3088 428 2723 176 
Q 2359 -75 1813 -75 
Q 947 -75 531 491 
Q 203 944 203 1634 
Q 203 2459 634 2926 
Q 1066 3394 1725 3394 
Q 2466 3394 2894 2905 
Q 3322 2416 3303 1406 
L 1103 1406 
Q 1113 1016 1316 798 
Q 1519 581 1822 581 
Q 2028 581 2168 693 
Q 2309 806 2381 1056 
z
M 2431 1944 
Q 2422 2325 2234 2523 
Q 2047 2722 1778 2722 
Q 1491 2722 1303 2513 
Q 1116 2303 1119 1944 
L 2431 1944 
z
" transform="scale(0.015625)"/>
      <path id="Arial-BoldMT-73" d="M 150 947 
L 1031 1081 
Q 1088 825 1259 692 
Q 1431 559 1741 559 
Q 2081 559 2253 684 
Q 2369 772 2369 919 
Q 2369 1019 2306 1084 
Q 2241 1147 2013 1200 
Q 950 1434 666 1628 
Q 272 1897 272 2375 
Q 272 2806 612 3100 
Q 953 3394 1669 3394 
Q 2350 3394 2681 3172 
Q 3013 2950 3138 2516 
L 2309 2363 
Q 2256 2556 2107 2659 
Q 1959 2763 1684 2763 
Q 1338 2763 1188 2666 
Q 1088 2597 1088 2488 
Q 1088 2394 1175 2328 
Q 1294 2241 1995 2081 
Q 2697 1922 2975 1691 
Q 3250 1456 3250 1038 
Q 3250 581 2869 253 
Q 2488 -75 1741 -75 
Q 1063 -75 667 200 
Q 272 475 150 947 
z
" transform="scale(0.015625)"/>
      <path id="Arial-BoldMT-6e" d="M 3478 0 
L 2600 0 
L 2600 1694 
Q 2600 2231 2544 2389 
Q 2488 2547 2361 2634 
Q 2234 2722 2056 2722 
Q 1828 2722 1647 2597 
Q 1466 2472 1398 2265 
Q 1331 2059 1331 1503 
L 1331 0 
L 453 0 
L 453 3319 
L 1269 3319 
L 1269 2831 
Q 1703 3394 2363 3394 
Q 2653 3394 2893 3289 
Q 3134 3184 3257 3021 
Q 3381 2859 3429 2653 
Q 3478 2447 3478 2063 
L 3478 0 
z
" transform="scale(0.015625)"/>
      <path id="Arial-BoldMT-64" d="M 3503 0 
L 2688 0 
L 2688 488 
Q 2484 203 2207 64 
Q 1931 -75 1650 -75 
Q 1078 -75 670 386 
Q 263 847 263 1672 
Q 263 2516 659 2955 
Q 1056 3394 1663 3394 
Q 2219 3394 2625 2931 
L 2625 4581 
L 3503 4581 
L 3503 0 
z
M 1159 1731 
Q 1159 1200 1306 963 
Q 1519 619 1900 619 
Q 2203 619 2415 876 
Q 2628 1134 2628 1647 
Q 2628 2219 2422 2470 
Q 2216 2722 1894 2722 
Q 1581 2722 1370 2473 
Q 1159 2225 1159 1731 
z
" transform="scale(0.015625)"/>
      <path id="Arial-BoldMT-49" d="M 438 0 
L 438 4581 
L 1363 4581 
L 1363 0 
L 438 0 
z
" transform="scale(0.015625)"/>
      <path id="Arial-BoldMT-70" d="M 434 3319 
L 1253 3319 
L 1253 2831 
Q 1413 3081 1684 3237 
Q 1956 3394 2288 3394 
Q 2866 3394 3269 2941 
Q 3672 2488 3672 1678 
Q 3672 847 3265 386 
Q 2859 -75 2281 -75 
Q 2006 -75 1782 34 
Q 1559 144 1313 409 
L 1313 -1263 
L 434 -1263 
L 434 3319 
z
M 1303 1716 
Q 1303 1156 1525 889 
Q 1747 622 2066 622 
Q 2372 622 2575 867 
Q 2778 1113 2778 1672 
Q 2778 2194 2568 2447 
Q 2359 2700 2050 2700 
Q 1728 2700 1515 2451 
Q 1303 2203 1303 1716 
z
" transform="scale(0.015625)"/>
      <path id="Arial-BoldMT-74" d="M 1981 3319 
L 1981 2619 
L 1381 2619 
L 1381 1281 
Q 1381 875 1398 808 
Q 1416 741 1477 697 
Q 1538 653 1625 653 
Q 1747 653 1978 738 
L 2053 56 
Q 1747 -75 1359 -75 
Q 1122 -75 931 4 
Q 741 84 652 211 
Q 563 338 528 553 
Q 500 706 500 1172 
L 500 2619 
L 97 2619 
L 97 3319 
L 500 3319 
L 500 3978 
L 1381 4491 
L 1381 3319 
L 1981 3319 
z
" transform="scale(0.015625)"/>
      <path id="Arial-BoldMT-54" d="M 1497 0 
L 1497 3806 
L 138 3806 
L 138 4581 
L 3778 4581 
L 3778 3806 
L 2422 3806 
L 2422 0 
L 1497 0 
z
" transform="scale(0.015625)"/>
      <path id="Arial-BoldMT-28" d="M 1916 -1347 
L 1313 -1347 
Q 834 -625 584 153 
Q 334 931 334 1659 
Q 334 2563 644 3369 
Q 913 4069 1325 4659 
L 1925 4659 
Q 1497 3713 1336 3048 
Q 1175 2384 1175 1641 
Q 1175 1128 1270 590 
Q 1366 53 1531 -431 
Q 1641 -750 1916 -1347 
z
" transform="scale(0.015625)"/>
      <path id="Arial-BoldMT-45" d="M 466 0 
L 466 4581 
L 3863 4581 
L 3863 3806 
L 1391 3806 
L 1391 2791 
L 3691 2791 
L 3691 2019 
L 1391 2019 
L 1391 772 
L 3950 772 
L 3950 0 
L 466 0 
z
" transform="scale(0.015625)"/>
      <path id="Arial-BoldMT-6d" d="M 394 3319 
L 1203 3319 
L 1203 2866 
Q 1638 3394 2238 3394 
Q 2556 3394 2790 3262 
Q 3025 3131 3175 2866 
Q 3394 3131 3647 3262 
Q 3900 3394 4188 3394 
Q 4553 3394 4806 3245 
Q 5059 3097 5184 2809 
Q 5275 2597 5275 2122 
L 5275 0 
L 4397 0 
L 4397 1897 
Q 4397 2391 4306 2534 
Q 4184 2722 3931 2722 
Q 3747 2722 3584 2609 
Q 3422 2497 3350 2280 
Q 3278 2063 3278 1594 
L 3278 0 
L 2400 0 
L 2400 1819 
Q 2400 2303 2353 2443 
Q 2306 2584 2207 2653 
Q 2109 2722 1941 2722 
Q 1738 2722 1575 2612 
Q 1413 2503 1342 2297 
Q 1272 2091 1272 1613 
L 1272 0 
L 394 0 
L 394 3319 
z
" transform="scale(0.015625)"/>
      <path id="Arial-BoldMT-62" d="M 422 0 
L 422 4581 
L 1300 4581 
L 1300 2931 
Q 1706 3394 2263 3394 
Q 2869 3394 3266 2955 
Q 3663 2516 3663 1694 
Q 3663 844 3258 384 
Q 2853 -75 2275 -75 
Q 1991 -75 1714 67 
Q 1438 209 1238 488 
L 1238 0 
L 422 0 
z
M 1294 1731 
Q 1294 1216 1456 969 
Q 1684 619 2063 619 
Q 2353 619 2558 867 
Q 2763 1116 2763 1650 
Q 2763 2219 2556 2470 
Q 2350 2722 2028 2722 
Q 1713 2722 1503 2476 
Q 1294 2231 1294 1731 
z
" transform="scale(0.015625)"/>
      <path id="Arial-BoldMT-6c" d="M 459 0 
L 459 4581 
L 1338 4581 
L 1338 0 
L 459 0 
z
" transform="scale(0.015625)"/>
      <path id="Arial-BoldMT-29" d="M 216 -1347 
Q 475 -791 581 -494 
Q 688 -197 778 190 
Q 869 578 912 926 
Q 956 1275 956 1641 
Q 956 2384 797 3048 
Q 638 3713 209 4659 
L 806 4659 
Q 1278 3988 1539 3234 
Q 1800 2481 1800 1706 
Q 1800 1053 1594 306 
Q 1359 -531 822 -1347 
L 216 -1347 
z
" transform="scale(0.015625)"/>
     </defs>
     <use xlink:href="#Arial-BoldMT-52"/>
     <use xlink:href="#Arial-BoldMT-6f" x="72.216797"/>
     <use xlink:href="#Arial-BoldMT-63" x="133.300781"/>
     <use xlink:href="#Arial-BoldMT-20" x="188.916016"/>
     <use xlink:href="#Arial-BoldMT-43" x="216.699219"/>
     <use xlink:href="#Arial-BoldMT-75" x="288.916016"/>
     <use xlink:href="#Arial-BoldMT-72" x="350"/>
     <use xlink:href="#Arial-BoldMT-76" x="388.916016"/>
     <use xlink:href="#Arial-BoldMT-65" x="444.53125"/>
     <use xlink:href="#Arial-BoldMT-73" x="500.146484"/>
     <use xlink:href="#Arial-BoldMT-20" x="555.761719"/>
     <use xlink:href="#Arial-BoldMT-75" x="583.544922"/>
     <use xlink:href="#Arial-BoldMT-6e" x="644.628906"/>
     <use xlink:href="#Arial-BoldMT-64" x="705.712891"/>
     <use xlink:href="#Arial-BoldMT-65" x="766.796875"/>
     <use xlink:href="#Arial-BoldMT-72" x="822.412109"/>
     <use xlink:href="#Arial-BoldMT-20" x="861.328125"/>
     <use xlink:href="#Arial-BoldMT-49" x="889.111328"/>
     <use xlink:href="#Arial-BoldMT-6e" x="916.894531"/>
     <use xlink:href="#Arial-BoldMT-64" x="977.978516"/>
     <use xlink:href="#Arial-BoldMT-65" x="1039.0625"/>
     <use xlink:href="#Arial-BoldMT-70" x="1094.677734"/>
     <use xlink:href="#Arial-BoldMT-65" x="1155.761719"/>
     <use xlink:href="#Arial-BoldMT-6e" x="1211.376953"/>
     <use xlink:href="#Arial-BoldMT-64" x="1272.460938"/>
     <use xlink:href="#Arial-BoldMT-65" x="1333.544922"/>
     <use xlink:href="#Arial-BoldMT-6e" x="1389.160156"/>
     <use xlink:href="#Arial-BoldMT-74" x="1450.244141"/>
     <use xlink:href="#Arial-BoldMT-20" x="1483.544922"/>
     <use xlink:href="#Arial-BoldMT-54" x="1511.328125"/>
     <use xlink:href="#Arial-BoldMT-65" x="1565.037109"/>
     <use xlink:href="#Arial-BoldMT-73" x="1620.652344"/>
     <use xlink:href="#Arial-BoldMT-74" x="1676.267578"/>
     <use xlink:href="#Arial-BoldMT-20" x="1709.568359"/>
     <use xlink:href="#Arial-BoldMT-28" x="1737.351562"/>
     <use xlink:href="#Arial-BoldMT-45" x="1770.652344"/>
     <use xlink:href="#Arial-BoldMT-6e" x="1837.351562"/>
     <use xlink:href="#Arial-BoldMT-73" x="1898.435547"/>
     <use xlink:href="#Arial-BoldMT-65" x="1954.050781"/>
     <use xlink:href="#Arial-BoldMT-6d" x="2009.666016"/>
     <use xlink:href="#Arial-BoldMT-62" x="2098.582031"/>
     <use xlink:href="#Arial-BoldMT-6c" x="2159.666016"/>
     <use xlink:href="#Arial-BoldMT-65" x="2187.449219"/>
     <use xlink:href="#Arial-BoldMT-29" x="2243.064453"/>
    </g>
   </g>
   <g id="legend_1">
    <g id="patch_7">
     <path d="M 140.301562 310 
L 381.8 310 
Q 383.8 310 383.8 308 
L 383.8 235.609375 
Q 383.8 233.609375 381.8 233.609375 
L 140.301562 233.609375 
Q 138.301562 233.609375 138.301562 235.609375 
L 138.301562 308 
Q 138.301562 310 140.301562 310 
z
" style="fill: #ffffff; opacity: 0.8; stroke: #cccccc; stroke-linejoin: miter"/>
    </g>
    <g id="line2d_19">
     <path d="M 142.301562 241.707812 
L 152.301562 241.707812 
L 162.301562 241.707812 
" style="fill: none; stroke: #4169e1; stroke-width: 2; stroke-linecap: square"/>
    </g>
    <g id="text_16">
     <!-- CNN + LSTM + LR + XGB + Resf5C (0.79) -->
     <g transform="translate(170.301562 245.207812)scale(0.1 -0.1)">
      <defs>
       <path id="DejaVuSans-43" d="M 4122 4306 
L 4122 3641 
Q 3803 3938 3442 4084 
Q 3081 4231 2675 4231 
Q 1875 4231 1450 3742 
Q 1025 3253 1025 2328 
Q 1025 1406 1450 917 
Q 1875 428 2675 428 
Q 3081 428 3442 575 
Q 3803 722 4122 1019 
L 4122 359 
Q 3791 134 3420 21 
Q 3050 -91 2638 -91 
Q 1578 -91 968 557 
Q 359 1206 359 2328 
Q 359 3453 968 4101 
Q 1578 4750 2638 4750 
Q 3056 4750 3426 4639 
Q 3797 4528 4122 4306 
z
" transform="scale(0.015625)"/>
       <path id="DejaVuSans-4e" d="M 628 4666 
L 1478 4666 
L 3547 763 
L 3547 4666 
L 4159 4666 
L 4159 0 
L 3309 0 
L 1241 3903 
L 1241 0 
L 628 0 
L 628 4666 
z
" transform="scale(0.015625)"/>
       <path id="DejaVuSans-20" transform="scale(0.015625)"/>
       <path id="DejaVuSans-2b" d="M 2944 4013 
L 2944 2272 
L 4684 2272 
L 4684 1741 
L 2944 1741 
L 2944 0 
L 2419 0 
L 2419 1741 
L 678 1741 
L 678 2272 
L 2419 2272 
L 2419 4013 
L 2944 4013 
z
" transform="scale(0.015625)"/>
       <path id="DejaVuSans-4c" d="M 628 4666 
L 1259 4666 
L 1259 531 
L 3531 531 
L 3531 0 
L 628 0 
L 628 4666 
z
" transform="scale(0.015625)"/>
       <path id="DejaVuSans-53" d="M 3425 4513 
L 3425 3897 
Q 3066 4069 2747 4153 
Q 2428 4238 2131 4238 
Q 1616 4238 1336 4038 
Q 1056 3838 1056 3469 
Q 1056 3159 1242 3001 
Q 1428 2844 1947 2747 
L 2328 2669 
Q 3034 2534 3370 2195 
Q 3706 1856 3706 1288 
Q 3706 609 3251 259 
Q 2797 -91 1919 -91 
Q 1588 -91 1214 -16 
Q 841 59 441 206 
L 441 856 
Q 825 641 1194 531 
Q 1563 422 1919 422 
Q 2459 422 2753 634 
Q 3047 847 3047 1241 
Q 3047 1584 2836 1778 
Q 2625 1972 2144 2069 
L 1759 2144 
Q 1053 2284 737 2584 
Q 422 2884 422 3419 
Q 422 4038 858 4394 
Q 1294 4750 2059 4750 
Q 2388 4750 2728 4690 
Q 3069 4631 3425 4513 
z
" transform="scale(0.015625)"/>
       <path id="DejaVuSans-54" d="M -19 4666 
L 3928 4666 
L 3928 4134 
L 2272 4134 
L 2272 0 
L 1638 0 
L 1638 4134 
L -19 4134 
L -19 4666 
z
" transform="scale(0.015625)"/>
       <path id="DejaVuSans-4d" d="M 628 4666 
L 1569 4666 
L 2759 1491 
L 3956 4666 
L 4897 4666 
L 4897 0 
L 4281 0 
L 4281 4097 
L 3078 897 
L 2444 897 
L 1241 4097 
L 1241 0 
L 628 0 
L 628 4666 
z
" transform="scale(0.015625)"/>
       <path id="DejaVuSans-52" d="M 2841 2188 
Q 3044 2119 3236 1894 
Q 3428 1669 3622 1275 
L 4263 0 
L 3584 0 
L 2988 1197 
Q 2756 1666 2539 1819 
Q 2322 1972 1947 1972 
L 1259 1972 
L 1259 0 
L 628 0 
L 628 4666 
L 2053 4666 
Q 2853 4666 3247 4331 
Q 3641 3997 3641 3322 
Q 3641 2881 3436 2590 
Q 3231 2300 2841 2188 
z
M 1259 4147 
L 1259 2491 
L 2053 2491 
Q 2509 2491 2742 2702 
Q 2975 2913 2975 3322 
Q 2975 3731 2742 3939 
Q 2509 4147 2053 4147 
L 1259 4147 
z
" transform="scale(0.015625)"/>
       <path id="DejaVuSans-58" d="M 403 4666 
L 1081 4666 
L 2241 2931 
L 3406 4666 
L 4084 4666 
L 2584 2425 
L 4184 0 
L 3506 0 
L 2194 1984 
L 872 0 
L 191 0 
L 1856 2491 
L 403 4666 
z
" transform="scale(0.015625)"/>
       <path id="DejaVuSans-47" d="M 3809 666 
L 3809 1919 
L 2778 1919 
L 2778 2438 
L 4434 2438 
L 4434 434 
Q 4069 175 3628 42 
Q 3188 -91 2688 -91 
Q 1594 -91 976 548 
Q 359 1188 359 2328 
Q 359 3472 976 4111 
Q 1594 4750 2688 4750 
Q 3144 4750 3555 4637 
Q 3966 4525 4313 4306 
L 4313 3634 
Q 3963 3931 3569 4081 
Q 3175 4231 2741 4231 
Q 1884 4231 1454 3753 
Q 1025 3275 1025 2328 
Q 1025 1384 1454 906 
Q 1884 428 2741 428 
Q 3075 428 3337 486 
Q 3600 544 3809 666 
z
" transform="scale(0.015625)"/>
       <path id="DejaVuSans-42" d="M 1259 2228 
L 1259 519 
L 2272 519 
Q 2781 519 3026 730 
Q 3272 941 3272 1375 
Q 3272 1813 3026 2020 
Q 2781 2228 2272 2228 
L 1259 2228 
z
M 1259 4147 
L 1259 2741 
L 2194 2741 
Q 2656 2741 2882 2914 
Q 3109 3088 3109 3444 
Q 3109 3797 2882 3972 
Q 2656 4147 2194 4147 
L 1259 4147 
z
M 628 4666 
L 2241 4666 
Q 2963 4666 3353 4366 
Q 3744 4066 3744 3513 
Q 3744 3084 3544 2831 
Q 3344 2578 2956 2516 
Q 3422 2416 3680 2098 
Q 3938 1781 3938 1306 
Q 3938 681 3513 340 
Q 3088 0 2303 0 
L 628 0 
L 628 4666 
z
" transform="scale(0.015625)"/>
       <path id="DejaVuSans-65" d="M 3597 1894 
L 3597 1613 
L 953 1613 
Q 991 1019 1311 708 
Q 1631 397 2203 397 
Q 2534 397 2845 478 
Q 3156 559 3463 722 
L 3463 178 
Q 3153 47 2828 -22 
Q 2503 -91 2169 -91 
Q 1331 -91 842 396 
Q 353 884 353 1716 
Q 353 2575 817 3079 
Q 1281 3584 2069 3584 
Q 2775 3584 3186 3129 
Q 3597 2675 3597 1894 
z
M 3022 2063 
Q 3016 2534 2758 2815 
Q 2500 3097 2075 3097 
Q 1594 3097 1305 2825 
Q 1016 2553 972 2059 
L 3022 2063 
z
" transform="scale(0.015625)"/>
       <path id="DejaVuSans-73" d="M 2834 3397 
L 2834 2853 
Q 2591 2978 2328 3040 
Q 2066 3103 1784 3103 
Q 1356 3103 1142 2972 
Q 928 2841 928 2578 
Q 928 2378 1081 2264 
Q 1234 2150 1697 2047 
L 1894 2003 
Q 2506 1872 2764 1633 
Q 3022 1394 3022 966 
Q 3022 478 2636 193 
Q 2250 -91 1575 -91 
Q 1294 -91 989 -36 
Q 684 19 347 128 
L 347 722 
Q 666 556 975 473 
Q 1284 391 1588 391 
Q 1994 391 2212 530 
Q 2431 669 2431 922 
Q 2431 1156 2273 1281 
Q 2116 1406 1581 1522 
L 1381 1569 
Q 847 1681 609 1914 
Q 372 2147 372 2553 
Q 372 3047 722 3315 
Q 1072 3584 1716 3584 
Q 2034 3584 2315 3537 
Q 2597 3491 2834 3397 
z
" transform="scale(0.015625)"/>
       <path id="DejaVuSans-66" d="M 2375 4863 
L 2375 4384 
L 1825 4384 
Q 1516 4384 1395 4259 
Q 1275 4134 1275 3809 
L 1275 3500 
L 2222 3500 
L 2222 3053 
L 1275 3053 
L 1275 0 
L 697 0 
L 697 3053 
L 147 3053 
L 147 3500 
L 697 3500 
L 697 3744 
Q 697 4328 969 4595 
Q 1241 4863 1831 4863 
L 2375 4863 
z
" transform="scale(0.015625)"/>
       <path id="DejaVuSans-35" d="M 691 4666 
L 3169 4666 
L 3169 4134 
L 1269 4134 
L 1269 2991 
Q 1406 3038 1543 3061 
Q 1681 3084 1819 3084 
Q 2600 3084 3056 2656 
Q 3513 2228 3513 1497 
Q 3513 744 3044 326 
Q 2575 -91 1722 -91 
Q 1428 -91 1123 -41 
Q 819 9 494 109 
L 494 744 
Q 775 591 1075 516 
Q 1375 441 1709 441 
Q 2250 441 2565 725 
Q 2881 1009 2881 1497 
Q 2881 1984 2565 2268 
Q 2250 2553 1709 2553 
Q 1456 2553 1204 2497 
Q 953 2441 691 2322 
L 691 4666 
z
" transform="scale(0.015625)"/>
       <path id="DejaVuSans-28" d="M 1984 4856 
Q 1566 4138 1362 3434 
Q 1159 2731 1159 2009 
Q 1159 1288 1364 580 
Q 1569 -128 1984 -844 
L 1484 -844 
Q 1016 -109 783 600 
Q 550 1309 550 2009 
Q 550 2706 781 3412 
Q 1013 4119 1484 4856 
L 1984 4856 
z
" transform="scale(0.015625)"/>
       <path id="DejaVuSans-37" d="M 525 4666 
L 3525 4666 
L 3525 4397 
L 1831 0 
L 1172 0 
L 2766 4134 
L 525 4134 
L 525 4666 
z
" transform="scale(0.015625)"/>
       <path id="DejaVuSans-39" d="M 703 97 
L 703 672 
Q 941 559 1184 500 
Q 1428 441 1663 441 
Q 2288 441 2617 861 
Q 2947 1281 2994 2138 
Q 2813 1869 2534 1725 
Q 2256 1581 1919 1581 
Q 1219 1581 811 2004 
Q 403 2428 403 3163 
Q 403 3881 828 4315 
Q 1253 4750 1959 4750 
Q 2769 4750 3195 4129 
Q 3622 3509 3622 2328 
Q 3622 1225 3098 567 
Q 2575 -91 1691 -91 
Q 1453 -91 1209 -44 
Q 966 3 703 97 
z
M 1959 2075 
Q 2384 2075 2632 2365 
Q 2881 2656 2881 3163 
Q 2881 3666 2632 3958 
Q 2384 4250 1959 4250 
Q 1534 4250 1286 3958 
Q 1038 3666 1038 3163 
Q 1038 2656 1286 2365 
Q 1534 2075 1959 2075 
z
" transform="scale(0.015625)"/>
       <path id="DejaVuSans-29" d="M 513 4856 
L 1013 4856 
Q 1481 4119 1714 3412 
Q 1947 2706 1947 2009 
Q 1947 1309 1714 600 
Q 1481 -109 1013 -844 
L 513 -844 
Q 928 -128 1133 580 
Q 1338 1288 1338 2009 
Q 1338 2731 1133 3434 
Q 928 4138 513 4856 
z
" transform="scale(0.015625)"/>
      </defs>
      <use xlink:href="#DejaVuSans-43"/>
      <use xlink:href="#DejaVuSans-4e" x="69.824219"/>
      <use xlink:href="#DejaVuSans-4e" x="144.628906"/>
      <use xlink:href="#DejaVuSans-20" x="219.433594"/>
      <use xlink:href="#DejaVuSans-2b" x="251.220703"/>
      <use xlink:href="#DejaVuSans-20" x="335.009766"/>
      <use xlink:href="#DejaVuSans-4c" x="366.796875"/>
      <use xlink:href="#DejaVuSans-53" x="422.509766"/>
      <use xlink:href="#DejaVuSans-54" x="485.986328"/>
      <use xlink:href="#DejaVuSans-4d" x="547.070312"/>
      <use xlink:href="#DejaVuSans-20" x="633.349609"/>
      <use xlink:href="#DejaVuSans-2b" x="665.136719"/>
      <use xlink:href="#DejaVuSans-20" x="748.925781"/>
      <use xlink:href="#DejaVuSans-4c" x="780.712891"/>
      <use xlink:href="#DejaVuSans-52" x="836.425781"/>
      <use xlink:href="#DejaVuSans-20" x="905.908203"/>
      <use xlink:href="#DejaVuSans-2b" x="937.695312"/>
      <use xlink:href="#DejaVuSans-20" x="1021.484375"/>
      <use xlink:href="#DejaVuSans-58" x="1053.271484"/>
      <use xlink:href="#DejaVuSans-47" x="1121.777344"/>
      <use xlink:href="#DejaVuSans-42" x="1199.267578"/>
      <use xlink:href="#DejaVuSans-20" x="1267.871094"/>
      <use xlink:href="#DejaVuSans-2b" x="1299.658203"/>
      <use xlink:href="#DejaVuSans-20" x="1383.447266"/>
      <use xlink:href="#DejaVuSans-52" x="1415.234375"/>
      <use xlink:href="#DejaVuSans-65" x="1480.216797"/>
      <use xlink:href="#DejaVuSans-73" x="1541.740234"/>
      <use xlink:href="#DejaVuSans-66" x="1593.839844"/>
      <use xlink:href="#DejaVuSans-35" x="1629.044922"/>
      <use xlink:href="#DejaVuSans-43" x="1692.667969"/>
      <use xlink:href="#DejaVuSans-20" x="1762.492188"/>
      <use xlink:href="#DejaVuSans-28" x="1794.279297"/>
      <use xlink:href="#DejaVuSans-30" x="1833.292969"/>
      <use xlink:href="#DejaVuSans-2e" x="1896.916016"/>
      <use xlink:href="#DejaVuSans-37" x="1928.703125"/>
      <use xlink:href="#DejaVuSans-39" x="1992.326172"/>
      <use xlink:href="#DejaVuSans-29" x="2055.949219"/>
     </g>
    </g>
    <g id="line2d_20">
     <path d="M 142.301562 256.385938 
L 152.301562 256.385938 
L 162.301562 256.385938 
" style="fill: none; stroke: #ff8c00; stroke-width: 2; stroke-linecap: square"/>
    </g>
    <g id="text_17">
     <!-- CNN + LR + XGB + Resf5C (0.80) -->
     <g transform="translate(170.301562 259.885938)scale(0.1 -0.1)">
      <use xlink:href="#DejaVuSans-43"/>
      <use xlink:href="#DejaVuSans-4e" x="69.824219"/>
      <use xlink:href="#DejaVuSans-4e" x="144.628906"/>
      <use xlink:href="#DejaVuSans-20" x="219.433594"/>
      <use xlink:href="#DejaVuSans-2b" x="251.220703"/>
      <use xlink:href="#DejaVuSans-20" x="335.009766"/>
      <use xlink:href="#DejaVuSans-4c" x="366.796875"/>
      <use xlink:href="#DejaVuSans-52" x="422.509766"/>
      <use xlink:href="#DejaVuSans-20" x="491.992188"/>
      <use xlink:href="#DejaVuSans-2b" x="523.779297"/>
      <use xlink:href="#DejaVuSans-20" x="607.568359"/>
      <use xlink:href="#DejaVuSans-58" x="639.355469"/>
      <use xlink:href="#DejaVuSans-47" x="707.861328"/>
      <use xlink:href="#DejaVuSans-42" x="785.351562"/>
      <use xlink:href="#DejaVuSans-20" x="853.955078"/>
      <use xlink:href="#DejaVuSans-2b" x="885.742188"/>
      <use xlink:href="#DejaVuSans-20" x="969.53125"/>
      <use xlink:href="#DejaVuSans-52" x="1001.318359"/>
      <use xlink:href="#DejaVuSans-65" x="1066.300781"/>
      <use xlink:href="#DejaVuSans-73" x="1127.824219"/>
      <use xlink:href="#DejaVuSans-66" x="1179.923828"/>
      <use xlink:href="#DejaVuSans-35" x="1215.128906"/>
      <use xlink:href="#DejaVuSans-43" x="1278.751953"/>
      <use xlink:href="#DejaVuSans-20" x="1348.576172"/>
      <use xlink:href="#DejaVuSans-28" x="1380.363281"/>
      <use xlink:href="#DejaVuSans-30" x="1419.376953"/>
      <use xlink:href="#DejaVuSans-2e" x="1483"/>
      <use xlink:href="#DejaVuSans-38" x="1514.787109"/>
      <use xlink:href="#DejaVuSans-30" x="1578.410156"/>
      <use xlink:href="#DejaVuSans-29" x="1642.033203"/>
     </g>
    </g>
    <g id="line2d_21">
     <path d="M 142.301562 271.064062 
L 152.301562 271.064062 
L 162.301562 271.064062 
" style="fill: none; stroke: #228b22; stroke-width: 2; stroke-linecap: square"/>
    </g>
    <g id="text_18">
     <!-- CNN + LR + XGB (0.79) -->
     <g transform="translate(170.301562 274.564062)scale(0.1 -0.1)">
      <use xlink:href="#DejaVuSans-43"/>
      <use xlink:href="#DejaVuSans-4e" x="69.824219"/>
      <use xlink:href="#DejaVuSans-4e" x="144.628906"/>
      <use xlink:href="#DejaVuSans-20" x="219.433594"/>
      <use xlink:href="#DejaVuSans-2b" x="251.220703"/>
      <use xlink:href="#DejaVuSans-20" x="335.009766"/>
      <use xlink:href="#DejaVuSans-4c" x="366.796875"/>
      <use xlink:href="#DejaVuSans-52" x="422.509766"/>
      <use xlink:href="#DejaVuSans-20" x="491.992188"/>
      <use xlink:href="#DejaVuSans-2b" x="523.779297"/>
      <use xlink:href="#DejaVuSans-20" x="607.568359"/>
      <use xlink:href="#DejaVuSans-58" x="639.355469"/>
      <use xlink:href="#DejaVuSans-47" x="707.861328"/>
      <use xlink:href="#DejaVuSans-42" x="785.351562"/>
      <use xlink:href="#DejaVuSans-20" x="853.955078"/>
      <use xlink:href="#DejaVuSans-28" x="885.742188"/>
      <use xlink:href="#DejaVuSans-30" x="924.755859"/>
      <use xlink:href="#DejaVuSans-2e" x="988.378906"/>
      <use xlink:href="#DejaVuSans-37" x="1020.166016"/>
      <use xlink:href="#DejaVuSans-39" x="1083.789062"/>
      <use xlink:href="#DejaVuSans-29" x="1147.412109"/>
     </g>
    </g>
    <g id="line2d_22">
     <path d="M 142.301562 285.742188 
L 152.301562 285.742188 
L 162.301562 285.742188 
" style="fill: none; stroke: #9370db; stroke-width: 2; stroke-linecap: square"/>
    </g>
    <g id="text_19">
     <!-- LR + XGB + Resf5C (0.82) -->
     <g transform="translate(170.301562 289.242188)scale(0.1 -0.1)">
      <use xlink:href="#DejaVuSans-4c"/>
      <use xlink:href="#DejaVuSans-52" x="55.712891"/>
      <use xlink:href="#DejaVuSans-20" x="125.195312"/>
      <use xlink:href="#DejaVuSans-2b" x="156.982422"/>
      <use xlink:href="#DejaVuSans-20" x="240.771484"/>
      <use xlink:href="#DejaVuSans-58" x="272.558594"/>
      <use xlink:href="#DejaVuSans-47" x="341.064453"/>
      <use xlink:href="#DejaVuSans-42" x="418.554688"/>
      <use xlink:href="#DejaVuSans-20" x="487.158203"/>
      <use xlink:href="#DejaVuSans-2b" x="518.945312"/>
      <use xlink:href="#DejaVuSans-20" x="602.734375"/>
      <use xlink:href="#DejaVuSans-52" x="634.521484"/>
      <use xlink:href="#DejaVuSans-65" x="699.503906"/>
      <use xlink:href="#DejaVuSans-73" x="761.027344"/>
      <use xlink:href="#DejaVuSans-66" x="813.126953"/>
      <use xlink:href="#DejaVuSans-35" x="848.332031"/>
      <use xlink:href="#DejaVuSans-43" x="911.955078"/>
      <use xlink:href="#DejaVuSans-20" x="981.779297"/>
      <use xlink:href="#DejaVuSans-28" x="1013.566406"/>
      <use xlink:href="#DejaVuSans-30" x="1052.580078"/>
      <use xlink:href="#DejaVuSans-2e" x="1116.203125"/>
      <use xlink:href="#DejaVuSans-38" x="1147.990234"/>
      <use xlink:href="#DejaVuSans-32" x="1211.613281"/>
      <use xlink:href="#DejaVuSans-29" x="1275.236328"/>
     </g>
    </g>
    <g id="line2d_23">
     <path d="M 142.301562 300.420313 
L 152.301562 300.420313 
L 162.301562 300.420313 
" style="fill: none; stroke: #ff6347; stroke-width: 2; stroke-linecap: square"/>
    </g>
    <g id="text_20">
     <!-- XGB + Resf5C (0.83) -->
     <g transform="translate(170.301562 303.920313)scale(0.1 -0.1)">
      <defs>
       <path id="DejaVuSans-33" d="M 2597 2516 
Q 3050 2419 3304 2112 
Q 3559 1806 3559 1356 
Q 3559 666 3084 287 
Q 2609 -91 1734 -91 
Q 1441 -91 1130 -33 
Q 819 25 488 141 
L 488 750 
Q 750 597 1062 519 
Q 1375 441 1716 441 
Q 2309 441 2620 675 
Q 2931 909 2931 1356 
Q 2931 1769 2642 2001 
Q 2353 2234 1838 2234 
L 1294 2234 
L 1294 2753 
L 1863 2753 
Q 2328 2753 2575 2939 
Q 2822 3125 2822 3475 
Q 2822 3834 2567 4026 
Q 2313 4219 1838 4219 
Q 1578 4219 1281 4162 
Q 984 4106 628 3988 
L 628 4550 
Q 988 4650 1302 4700 
Q 1616 4750 1894 4750 
Q 2613 4750 3031 4423 
Q 3450 4097 3450 3541 
Q 3450 3153 3228 2886 
Q 3006 2619 2597 2516 
z
" transform="scale(0.015625)"/>
      </defs>
      <use xlink:href="#DejaVuSans-58"/>
      <use xlink:href="#DejaVuSans-47" x="68.505859"/>
      <use xlink:href="#DejaVuSans-42" x="145.996094"/>
      <use xlink:href="#DejaVuSans-20" x="214.599609"/>
      <use xlink:href="#DejaVuSans-2b" x="246.386719"/>
      <use xlink:href="#DejaVuSans-20" x="330.175781"/>
      <use xlink:href="#DejaVuSans-52" x="361.962891"/>
      <use xlink:href="#DejaVuSans-65" x="426.945312"/>
      <use xlink:href="#DejaVuSans-73" x="488.46875"/>
      <use xlink:href="#DejaVuSans-66" x="540.568359"/>
      <use xlink:href="#DejaVuSans-35" x="575.773438"/>
      <use xlink:href="#DejaVuSans-43" x="639.396484"/>
      <use xlink:href="#DejaVuSans-20" x="709.220703"/>
      <use xlink:href="#DejaVuSans-28" x="741.007812"/>
      <use xlink:href="#DejaVuSans-30" x="780.021484"/>
      <use xlink:href="#DejaVuSans-2e" x="843.644531"/>
      <use xlink:href="#DejaVuSans-38" x="875.431641"/>
      <use xlink:href="#DejaVuSans-33" x="939.054688"/>
      <use xlink:href="#DejaVuSans-29" x="1002.677734"/>
     </g>
    </g>
   </g>
  </g>
 </g>
 <defs>
  <clipPath id="pea90f03047">
   <rect x="54" y="43.2" width="334.8" height="271.8"/>
  </clipPath>
 </defs>
</svg>
